<?xml version="1.0" standalone="no"?>
<!DOCTYPE svg PUBLIC "-//W3C//DTD SVG 20010904//EN"
 "http://www.w3.org/TR/2001/REC-SVG-20010904/DTD/svg10.dtd">
<svg version="1.0" xmlns="http://www.w3.org/2000/svg"
 width="500.000000pt" height="500.000000pt" viewBox="0 0 500.000000 500.000000"
 preserveAspectRatio="xMidYMid meet">
<metadata>
Created by potrace 1.11, written by Peter Selinger 2001-2013
</metadata>
<g transform="translate(0.000000,500.000000) scale(0.100000,-0.100000)"
fill="#000000" stroke="none">
<path d="M2641 4979 c19 -14 20 -17 5 -22 -11 -4 -14 -12 -10 -19 5 -9 3 -9
-9 1 -18 15 -23 26 -7 16 6 -3 10 -2 10 4 0 5 -9 9 -19 8 -15 -1 -17 -5 -10
-18 6 -12 5 -20 -1 -24 -6 -4 -10 -3 -9 2 1 4 -1 16 -5 25 -7 15 -10 15 -33
-6 -22 -21 -30 -23 -55 -14 -16 6 -32 8 -35 4 -4 -3 2 -6 12 -6 14 0 16 -3 8
-11 -6 -6 -10 -17 -9 -23 2 -6 1 -8 -1 -3 -8 13 -45 8 -38 -5 4 -7 -1 -4 -9 6
-9 11 -16 14 -16 7 0 -7 -5 -9 -12 -5 -7 4 -8 3 -4 -5 4 -6 12 -9 17 -6 5 4 9
1 9 -6 0 -6 -8 -9 -19 -6 -19 5 -37 -9 -56 -42 -5 -9 -4 -12 3 -7 6 3 13 3 16
-2 5 -9 -8 -12 -51 -13 -14 -1 -20 -6 -16 -15 3 -8 10 -11 16 -7 6 3 7 1 3 -6
-6 -9 -11 -9 -22 0 -12 10 -13 9 -8 -5 8 -20 -13 -47 -31 -40 -7 3 -16 0 -21
-7 -5 -8 -3 -10 6 -4 8 5 11 3 8 -6 -3 -8 -13 -14 -24 -14 -15 0 -19 -7 -19
-37 0 -20 -3 -40 -7 -44 -4 -4 -6 3 -3 14 2 12 -1 24 -6 28 -5 3 -9 2 -8 -3 4
-22 -2 -34 -13 -27 -10 6 -10 4 0 -8 9 -11 10 -18 2 -23 -6 -3 -7 -11 -4 -17
4 -7 2 -8 -5 -4 -6 4 -9 12 -6 17 9 14 -5 11 -21 -6 -15 -15 -48 -10 -38 6 3
5 1 9 -5 9 -5 0 -13 -5 -16 -10 -5 -8 -11 -8 -19 -1 -7 6 -17 7 -21 3 -5 -4
-5 -1 -1 6 4 6 3 12 -1 12 -5 0 -15 -6 -22 -12 -10 -11 -11 -9 -5 7 7 18 6 19
-12 5 -10 -8 -23 -19 -27 -25 -4 -6 -7 -1 -5 10 2 13 -2 19 -12 17 -41 -10
-50 -10 -45 -1 6 8 -8 13 -27 10 -13 -2 -9 17 5 22 9 4 9 6 0 6 -22 2 -26 -22
-7 -36 17 -13 16 -13 -16 -8 -19 3 -36 8 -38 10 -3 2 -17 -2 -33 -11 -27 -13
-34 -11 -30 9 1 5 -3 6 -8 3 -5 -4 -12 -2 -16 4 -4 6 -12 7 -24 0 -12 -6 -21
-6 -28 1 -6 6 -10 5 -10 -5 0 -8 4 -13 9 -10 4 3 8 0 8 -5 0 -17 -20 -13 -26
4 -5 13 -10 12 -25 -6 -24 -28 -25 -37 -1 -16 15 14 19 15 19 2 0 -8 -4 -12
-8 -9 -4 2 -11 -1 -14 -7 -4 -5 -14 -8 -22 -5 -10 4 -13 2 -10 -8 4 -10 1 -13
-8 -9 -8 3 -12 10 -8 17 3 6 0 5 -8 -2 -12 -11 -12 -14 0 -21 10 -7 7 -9 -11
-8 -18 2 -24 6 -20 17 3 8 1 12 -3 7 -5 -4 -9 -17 -10 -30 -2 -25 -39 -33 -65
-13 -13 10 -13 9 -1 -6 13 -18 8 -23 -20 -20 -3 1 -6 -6 -6 -13 0 -11 4 -12
13 -4 8 7 14 6 20 -2 4 -7 3 -9 -4 -5 -6 3 -13 2 -17 -4 -3 -5 -15 -10 -26
-10 -14 0 -19 -5 -17 -17 2 -10 10 -17 17 -15 7 1 10 -2 6 -8 -5 -8 -11 -8
-19 -1 -9 8 -19 2 -35 -20 -16 -21 -29 -29 -42 -26 -15 4 -17 2 -9 -13 7 -13
7 -21 0 -25 -6 -4 -8 -10 -5 -15 3 -5 0 -12 -6 -16 -7 -4 -9 -3 -5 4 3 6 1 14
-6 18 -8 5 -6 10 8 16 18 8 18 8 -1 5 -14 -2 -19 -9 -17 -22 2 -11 0 -17 -4
-12 -4 4 -16 0 -26 -9 -15 -14 -16 -20 -5 -32 10 -13 9 -15 -5 -9 -10 3 -20 1
-24 -5 -4 -7 -3 -8 4 -4 8 5 12 0 12 -13 0 -12 -4 -21 -8 -21 -5 0 -17 -7 -28
-15 -14 -11 -15 -14 -3 -9 10 3 20 0 24 -5 3 -6 11 -8 17 -5 7 4 8 2 4 -5 -6
-8 -12 -9 -20 -2 -13 11 -26 5 -26 -11 0 -5 5 -6 12 -2 7 4 8 3 4 -4 -4 -7
-14 -12 -22 -12 -8 0 -13 -4 -9 -10 3 -5 13 -6 23 -3 16 6 16 6 0 -10 -18 -19
-33 -23 -23 -7 3 6 1 10 -5 10 -6 0 -8 -11 -6 -26 4 -20 0 -27 -14 -31 -11 -3
-16 -11 -13 -19 3 -8 3 -14 0 -14 -3 0 -8 7 -11 15 -4 10 2 19 17 25 21 8 21
9 -5 7 -15 -1 -24 -5 -21 -10 3 -4 -1 -8 -8 -6 -34 4 -39 -1 -29 -28 9 -25 8
-26 -4 -10 -13 17 -32 25 -22 9 2 -4 0 -14 -5 -22 -8 -12 -9 -11 -7 4 4 24
-16 32 -33 13 -15 -16 -49 -11 -49 7 0 6 -5 4 -10 -4 -9 -13 -11 -13 -21 0 -9
13 -10 12 -5 -2 3 -10 1 -18 -4 -18 -6 0 -10 -5 -10 -12 0 -9 3 -9 11 -1 6 6
18 9 27 6 11 -5 13 -3 7 8 -5 8 -4 11 0 6 5 -4 10 -14 11 -22 2 -12 -2 -12
-17 -5 -14 8 -19 7 -19 -1 0 -6 -7 -9 -15 -5 -8 3 -15 0 -15 -6 0 -6 -6 -5
-17 3 -9 8 -14 9 -10 3 4 -7 -2 -14 -13 -17 -11 -3 -20 0 -20 6 -1 7 -8 0 -16
-16 -8 -15 -12 -33 -8 -40 4 -6 -2 -4 -13 6 -22 19 -33 22 -33 6 0 -5 4 -8 9
-5 5 3 11 -3 14 -14 4 -17 3 -18 -16 -8 -29 16 -47 18 -47 6 0 -6 7 -7 16 -4
14 5 15 4 5 -8 -7 -8 -18 -13 -24 -11 -21 7 -58 -31 -50 -52 6 -15 5 -16 -9
-5 -13 10 -18 10 -24 1 -4 -7 -3 -9 3 -6 6 4 13 1 16 -7 4 -10 -1 -12 -16 -9
-18 4 -19 3 -7 -6 13 -9 12 -11 -5 -12 -11 -1 -24 -1 -28 0 -5 1 -6 -3 -2 -9
4 -6 16 -8 28 -5 20 5 20 5 4 -5 -10 -7 -24 -9 -32 -6 -14 5 -29 -20 -20 -35
4 -5 -1 -6 -9 -3 -8 3 -13 14 -11 25 2 11 0 17 -5 14 -9 -6 -8 -31 3 -41 12
-13 7 -22 -16 -28 -19 -5 -20 -8 -7 -17 12 -8 10 -9 -7 -4 -17 5 -23 2 -23
-10 0 -9 5 -13 10 -10 6 3 10 1 10 -4 0 -6 -5 -11 -11 -11 -5 0 -7 -5 -3 -12
4 -7 3 -8 -5 -4 -6 4 -9 11 -7 15 3 4 -1 8 -9 8 -11 0 -12 -5 -3 -21 10 -18 9
-19 -4 -9 -12 11 -18 9 -33 -7 -10 -11 -21 -17 -26 -15 -4 3 -10 2 -13 -3 -2
-4 4 -9 15 -9 10 -1 19 3 19 9 0 6 2 9 5 6 10 -10 -8 -39 -21 -34 -8 3 -14 1
-14 -5 0 -6 -4 -8 -9 -4 -5 3 -13 0 -17 -6 -5 -8 -3 -9 6 -4 8 5 11 3 8 -6 -3
-8 -11 -13 -18 -11 -11 2 -11 0 -1 -12 10 -11 8 -17 -11 -30 -12 -9 -18 -16
-13 -16 6 0 2 -5 -8 -11 -9 -6 -14 -15 -11 -21 4 -6 3 -8 -3 -5 -10 6 -28 -19
-25 -34 2 -13 -36 -40 -58 -42 -18 -1 -19 -3 -6 -13 21 -15 20 -19 -4 -21 -11
-1 -18 2 -15 7 3 6 -1 7 -10 3 -9 -3 -13 -9 -8 -12 5 -3 12 -14 16 -23 4 -12
2 -15 -9 -11 -7 3 -14 0 -14 -7 0 -6 -4 -9 -9 -6 -12 8 -34 -20 -27 -33 4 -5
-2 -14 -11 -20 -10 -6 -13 -10 -8 -11 20 0 36 17 30 32 -4 9 -2 19 4 22 16 10
8 -39 -10 -57 -9 -9 -19 -14 -21 -11 -3 2 -11 -2 -18 -11 -10 -12 -10 -18 1
-32 10 -11 10 -14 2 -9 -17 9 -17 -6 0 -24 6 -8 1 -6 -12 5 l-24 20 12 -22
c10 -20 9 -23 -9 -23 -12 0 -18 -4 -15 -10 3 -5 2 -10 -4 -10 -6 0 -7 -7 -4
-17 4 -11 3 -14 -5 -9 -7 4 -12 2 -12 -6 0 -10 -3 -9 -11 2 -9 13 -10 13 -6 0
2 -8 13 -14 23 -12 16 2 17 1 4 -7 -8 -6 -11 -11 -7 -11 4 0 3 -9 -3 -21 -7
-11 -14 -18 -17 -15 -3 3 -1 12 5 19 9 10 8 14 -3 14 -8 0 -12 -4 -9 -9 3 -4
0 -8 -6 -8 -7 0 -8 -6 0 -19 7 -14 7 -22 -2 -27 -6 -4 -8 -3 -5 3 4 6 -1 17
-11 24 -15 12 -16 12 -6 -1 15 -22 11 -66 -6 -62 -11 3 -11 0 -1 -12 10 -12 9
-16 -4 -24 -15 -8 -15 -12 -4 -33 8 -13 16 -26 19 -29 11 -11 8 -27 -5 -27 -7
0 -11 5 -9 11 3 7 -1 20 -9 29 -11 15 -13 -5 -13 -125 -1 -92 3 -146 10 -150
8 -5 7 -8 -1 -8 -7 0 -13 -5 -13 -10 0 -7 7 -7 21 1 17 9 20 8 13 -3 -19 -30
-11 -45 20 -39 5 1 4 -4 -2 -12 -7 -8 -9 -17 -5 -20 3 -4 1 -7 -6 -7 -8 0 -11
6 -7 16 3 8 2 12 -4 9 -9 -6 -14 8 -11 28 0 4 -3 7 -8 7 -5 0 -9 -11 -9 -25 0
-13 4 -22 9 -19 13 8 11 -10 -3 -26 -11 -12 -10 -12 5 -1 19 15 24 2 6 -16 -8
-8 -7 -13 2 -18 7 -5 10 -4 6 2 -4 6 0 16 7 22 11 9 16 9 22 0 4 -7 3 -9 -3
-6 -6 4 -13 -4 -15 -18 -3 -13 -2 -22 3 -20 4 3 10 1 14 -5 3 -5 1 -11 -4 -11
-26 -3 -30 -4 -36 -10 -3 -4 8 -5 25 -4 23 2 29 0 21 -8 -14 -14 -14 -30 -1
-22 5 3 10 -1 10 -10 0 -9 -4 -14 -8 -11 -5 3 -9 -1 -9 -9 0 -13 4 -12 19 2
10 9 21 13 25 10 3 -4 1 -7 -5 -7 -7 0 -12 -4 -12 -10 0 -5 7 -7 15 -4 8 4 15
1 15 -6 0 -6 -4 -8 -10 -5 -5 3 -10 1 -10 -5 0 -6 -5 -8 -12 -4 -7 4 -8 3 -4
-4 4 -6 13 -9 22 -5 8 3 14 2 13 -3 -1 -5 0 -12 1 -16 4 -13 7 -27 9 -38 0 -5
6 -10 12 -10 5 0 7 5 4 10 -3 6 -1 10 4 10 14 0 14 -17 1 -25 -8 -5 -8 -11 0
-20 8 -9 8 -14 -1 -17 -6 -2 2 -9 17 -16 27 -11 27 -11 10 3 -11 8 -16 15 -12
15 5 0 3 6 -3 13 -8 10 -7 14 4 14 8 0 12 -4 9 -8 -2 -4 7 -20 21 -37 19 -23
22 -32 12 -42 -10 -10 -7 -11 13 -5 20 6 23 5 13 -6 -10 -10 -9 -16 4 -31 9
-10 21 -18 27 -18 6 0 4 5 -4 10 -12 7 -11 9 6 8 15 -2 20 -7 16 -20 -2 -10 1
-18 7 -18 7 0 9 6 5 12 -4 7 4 3 17 -8 13 -12 31 -19 39 -17 13 4 13 3 0 -6
-10 -7 -19 -6 -32 6 -10 9 -18 11 -18 6 0 -6 7 -14 16 -17 8 -3 13 -10 9 -15
-3 -5 0 -13 6 -17 7 -4 9 -3 6 3 -12 20 20 21 48 3 16 -11 33 -16 38 -13 6 3
7 1 3 -6 -4 -6 -13 -8 -19 -4 -7 4 -5 -2 3 -13 22 -29 24 -30 17 -11 -4 9 -2
17 3 17 5 0 11 -9 15 -19 6 -19 7 -19 24 -3 10 9 15 22 12 27 -2 6 2 4 11 -2
8 -7 18 -9 22 -5 4 4 6 0 4 -8 -2 -10 4 -14 17 -12 16 2 17 1 5 -7 -9 -7 -19
-6 -27 1 -9 7 -13 7 -13 0 0 -15 22 -20 47 -11 14 5 25 4 29 -3 4 -7 3 -8 -4
-4 -7 4 -12 2 -12 -4 0 -7 6 -10 14 -7 7 3 19 0 26 -6 10 -10 10 -8 1 10 -9
18 -8 20 8 16 10 -3 22 0 25 6 4 6 12 11 18 11 5 0 0 -8 -13 -18 -17 -15 -19
-21 -9 -27 9 -6 11 -4 5 5 -6 10 -3 12 13 8 14 -4 20 -2 16 4 -4 6 2 8 16 3
17 -5 21 -4 15 5 -6 9 -4 11 5 5 10 -6 12 -3 7 11 -7 18 -6 18 7 2 13 -17 42
-26 32 -10 -2 4 6 9 20 10 13 1 24 -3 24 -8 0 -5 -6 -7 -13 -4 -8 3 -20 -3
-28 -12 -8 -10 -9 -15 -2 -11 6 4 13 4 16 0 2 -5 2 -2 1 5 -2 6 1 12 6 12 6 0
10 -6 11 -12 0 -7 5 -3 11 10 13 27 24 28 36 4 7 -15 9 -57 2 -64 -4 -5 -6
-67 -1 -63 5 6 41 -35 41 -46 0 -4 7 -14 15 -22 13 -13 13 -16 -1 -21 -8 -3
-12 -2 -9 4 3 6 1 10 -4 10 -6 0 -11 -4 -11 -8 0 -11 47 -52 53 -46 2 3 3 -11
1 -31 -1 -19 2 -35 7 -35 6 0 7 -5 4 -10 -4 -6 -3 -10 2 -9 19 3 33 -2 33 -12
0 -5 -4 -8 -8 -5 -5 3 -9 -1 -9 -8 0 -15 14 -15 36 -2 10 7 12 3 6 -15 l-8
-24 24 20 c13 11 18 13 11 5 -14 -16 -16 -34 -3 -26 12 8 22 -20 14 -41 -4
-11 -3 -14 5 -9 7 4 12 15 12 24 1 12 5 10 14 -8 8 -14 12 -28 10 -31 -2 -4 6
-5 18 -2 19 4 20 3 8 -6 -8 -6 -10 -11 -4 -11 5 0 16 6 23 13 11 10 13 10 7 0
-4 -7 -3 -13 3 -13 5 0 12 6 15 13 4 6 4 2 2 -10 -2 -13 1 -26 6 -30 6 -3 8
-1 5 4 -4 6 0 16 8 23 8 7 12 17 8 24 -3 6 0 5 8 -3 11 -10 11 -15 2 -18 -7
-3 -13 -12 -13 -21 0 -15 2 -15 10 -2 5 8 10 10 10 4 0 -6 12 -16 26 -22 19
-9 24 -9 18 0 -5 8 -2 9 10 5 10 -4 20 -7 22 -7 2 0 4 -5 4 -11 0 -5 -4 -8 -9
-4 -5 3 -13 0 -17 -6 -4 -7 -3 -9 3 -6 17 11 44 -31 37 -58 -4 -16 -2 -25 6
-25 6 0 9 4 6 8 -3 5 1 9 8 9 11 0 12 -4 3 -18 -6 -10 -15 -16 -19 -13 -4 3
-5 -2 -2 -10 7 -18 25 -22 21 -5 -1 6 4 13 11 15 7 1 8 0 2 -3 -7 -3 -4 -13 9
-27 11 -11 18 -30 16 -41 -2 -11 -4 -24 -4 -28 -1 -5 -6 -5 -13 -1 -7 4 -8 3
-4 -5 4 -6 12 -9 17 -6 5 4 9 -1 9 -10 0 -9 -4 -14 -8 -11 -5 3 -9 -1 -9 -9 0
-18 14 -20 19 -3 5 14 38 20 38 6 0 -6 -6 -8 -14 -5 -9 4 -13 0 -11 -11 2 -9
4 -18 5 -19 2 -2 3 -6 4 -11 0 -4 11 -19 24 -32 14 -15 22 -19 20 -10 -2 8
-12 20 -23 27 -18 10 -18 11 6 10 18 -2 25 -8 27 -24 4 -46 6 -52 20 -58 7 -3
19 -2 24 2 7 3 8 1 4 -5 -4 -7 -2 -12 4 -12 7 0 10 -6 7 -14 -3 -8 1 -17 9
-20 10 -4 13 -14 10 -28 -3 -13 -3 -17 0 -11 4 9 11 9 30 -3 13 -9 22 -19 19
-23 -7 -12 29 -9 44 3 12 9 12 7 2 -12 -12 -22 -11 -23 11 -17 18 5 20 4 8 -4
-13 -10 -8 -15 13 -12 4 0 7 -4 7 -9 0 -13 -32 -9 -43 5 -5 6 -7 4 -4 -5 2 -8
10 -14 17 -12 7 2 10 -3 7 -12 -3 -8 0 -19 7 -25 9 -8 13 -7 13 4 0 8 -5 11
-10 8 -6 -3 -7 -1 -3 5 4 6 14 8 22 5 11 -4 12 -8 4 -13 -6 -4 -12 -11 -13
-16 -1 -5 -8 -8 -15 -8 -9 2 -8 -4 4 -17 13 -15 14 -19 3 -16 -8 2 -10 2 -6
-1 4 -2 2 -11 -5 -20 -10 -12 -10 -14 0 -8 6 4 12 3 12 -3 0 -5 -5 -13 -10
-16 -8 -5 -7 -12 2 -23 11 -13 10 -15 -4 -9 -24 9 -23 0 1 -12 16 -9 18 -7 16
17 -2 22 2 28 17 28 16 0 17 -2 5 -11 -8 -5 -13 -18 -11 -29 2 -11 -5 -20 -18
-24 -20 -5 -20 -5 3 -19 l24 -14 -25 6 c-17 4 -21 3 -11 -3 11 -8 10 -11 -4
-19 -16 -9 -16 -11 -1 -16 12 -5 14 -12 8 -24 -13 -28 -8 -108 6 -105 9 1 10
-6 6 -25 -4 -16 -8 -30 -10 -32 -2 -2 1 -12 6 -22 7 -12 7 -20 0 -24 -6 -4 -8
-11 -5 -16 4 -5 1 -9 -4 -9 -14 0 -14 13 0 27 8 8 2 10 -20 9 -17 0 -33 -7
-36 -14 -3 -9 0 -10 14 -3 13 7 18 6 18 -4 0 -7 -7 -11 -14 -8 -8 3 -13 2 -11
-3 2 -5 -2 -9 -7 -9 -6 0 -9 3 -8 7 2 5 -1 8 -6 8 -5 0 -18 3 -28 6 -15 6 -16
4 -5 -7 19 -21 14 -31 -6 -11 -14 12 -16 22 -10 37 9 19 8 19 -5 2 -10 -12
-17 -15 -22 -7 -5 8 -11 7 -23 -2 -12 -10 -16 -10 -19 0 -3 8 -11 5 -25 -10
-14 -17 -18 -18 -14 -6 3 10 0 20 -6 24 -6 4 -8 3 -4 -4 6 -9 -21 -24 -49 -27
-5 0 -9 -7 -7 -15 3 -11 -1 -10 -15 3 -17 15 -21 15 -41 1 -12 -8 -22 -11 -22
-6 0 16 52 35 60 21 6 -8 9 -8 14 0 4 6 13 8 19 5 7 -4 5 1 -4 11 -14 14 -20
15 -40 5 -17 -10 -24 -10 -27 -1 -2 6 -12 2 -24 -11 -14 -17 -18 -18 -14 -6 3
10 0 20 -6 24 -6 4 -8 3 -4 -4 6 -9 -21 -24 -49 -27 -5 0 -9 -6 -8 -12 2 -7
-8 -6 -27 3 -20 10 -27 20 -24 32 5 13 4 14 -4 3 -6 -8 -15 -10 -23 -5 -20 12
-38 14 -45 3 -8 -14 -26 -11 -18 4 4 6 -1 5 -12 -4 -10 -9 -24 -14 -31 -12
-12 4 -29 -41 -25 -65 2 -6 -2 -12 -8 -12 -6 0 -9 4 -6 9 3 5 -1 12 -10 15
-10 4 -13 2 -8 -6 10 -16 6 -69 -7 -84 -6 -8 -5 -13 5 -17 10 -4 13 -1 9 9 -3
7 -1 14 4 14 5 0 9 -11 9 -24 0 -18 -5 -23 -18 -21 -10 2 -16 0 -13 -6 4 -5
10 -7 14 -5 4 3 13 1 20 -3 10 -6 8 -12 -6 -26 -14 -15 -15 -18 -2 -13 9 4 23
-2 33 -13 22 -26 40 -15 25 14 -9 19 -8 20 3 6 7 -9 21 -15 31 -13 9 1 17 -2
17 -7 0 -6 7 -6 18 -1 17 10 32 9 67 -3 18 -6 18 -5 3 5 -10 6 -18 16 -18 21
0 6 7 3 16 -5 8 -9 21 -13 27 -9 6 4 8 0 4 -10 -3 -9 -2 -19 4 -22 5 -4 9 -3
8 2 -4 22 3 24 23 7 12 -10 18 -13 14 -6 -9 16 6 16 23 0 8 -8 11 -8 8 -2 -4
7 0 17 8 24 12 10 15 10 15 -3 0 -9 4 -19 10 -22 6 -3 7 1 4 10 -5 11 -2 14
12 9 18 -5 18 -5 0 10 -11 9 -15 16 -9 16 7 0 15 -5 18 -10 5 -8 11 -7 21 1 8
6 15 9 15 5 1 -3 2 -10 3 -15 0 -5 5 -13 10 -18 5 -4 6 -3 3 3 -8 13 20 40 30
30 3 -3 1 -6 -5 -6 -7 0 -12 -5 -12 -10 0 -7 8 -6 23 1 12 7 22 12 22 12 0 0
11 -5 25 -13 21 -10 23 -10 13 1 -7 7 -13 17 -13 22 0 11 25 -14 33 -33 4 -12
6 -12 6 2 1 9 5 20 11 23 6 3 7 -1 4 -10 -5 -12 -2 -14 12 -8 17 6 18 5 4 -13
-14 -18 -14 -18 3 -5 13 10 14 17 7 26 -8 9 -8 15 0 20 6 4 10 3 9 -2 -4 -22
3 -24 23 -7 l21 19 -19 -30 c-14 -23 -15 -27 -3 -18 9 7 20 9 24 5 5 -4 5 -1
1 6 -4 6 -2 12 3 12 6 0 11 -8 11 -17 0 -15 2 -16 9 -3 6 8 7 18 4 23 -3 5 4
4 15 -2 14 -7 23 -8 27 -1 4 6 11 8 16 4 5 -3 7 -9 4 -14 -3 -5 0 -12 6 -16 7
-4 9 -3 6 3 -8 12 20 39 30 29 3 -3 1 -6 -5 -6 -7 0 -12 -5 -12 -10 0 -7 8 -6
23 1 12 7 22 12 22 12 0 0 11 -5 25 -13 21 -10 23 -10 13 1 -7 7 -13 17 -13
22 0 11 25 -14 33 -33 4 -12 6 -12 6 2 1 9 5 20 11 23 6 3 7 -1 4 -10 -5 -12
-2 -14 12 -8 17 6 18 5 4 -13 -14 -18 -14 -18 3 -5 13 10 14 17 7 26 -8 9 -8
15 0 20 6 4 10 3 9 -2 -4 -22 3 -24 23 -7 l21 19 -19 -30 c-14 -23 -15 -27 -3
-18 9 7 20 9 24 5 5 -4 5 -1 1 6 -4 6 -2 12 3 12 6 0 11 -8 11 -17 0 -15 2
-16 9 -3 6 8 7 18 4 23 -3 5 4 4 15 -2 14 -7 23 -8 27 -1 4 6 11 8 16 4 5 -3
7 -9 4 -14 -3 -5 0 -12 6 -16 7 -4 9 -3 6 3 -8 12 20 39 30 29 3 -3 1 -6 -5
-6 -7 0 -12 -5 -12 -10 0 -7 6 -7 18 -1 9 5 19 10 22 12 3 1 16 -3 30 -11 21
-10 23 -10 13 1 -7 7 -13 17 -13 22 0 11 25 -14 33 -33 4 -12 6 -12 6 2 1 9 5
20 11 23 6 3 7 -1 4 -10 -5 -12 -2 -14 12 -8 17 6 18 5 4 -13 -14 -18 -14 -18
3 -5 13 10 14 17 7 26 -8 9 -8 15 0 20 6 4 10 3 9 -2 -4 -22 3 -24 23 -7 l21
19 -19 -30 c-14 -23 -15 -27 -3 -18 9 7 20 9 24 5 5 -4 5 -1 1 6 -4 6 -2 12 3
12 6 0 11 -8 11 -17 0 -15 2 -16 9 -3 6 8 7 18 4 23 -3 5 4 4 15 -2 14 -7 23
-8 27 -1 4 6 11 8 16 4 5 -3 7 -9 4 -14 -3 -5 0 -12 6 -16 7 -4 9 -3 6 3 -8
12 20 39 30 29 3 -3 1 -6 -5 -6 -7 0 -12 -5 -12 -10 0 -7 6 -7 18 -1 9 5 19
10 22 12 3 1 16 -3 30 -11 21 -10 23 -10 13 1 -7 7 -13 17 -13 22 0 11 25 -14
33 -33 4 -12 6 -12 6 2 1 9 5 20 11 23 6 3 7 -1 4 -10 -5 -12 -2 -14 12 -8 17
6 18 5 4 -13 -14 -18 -14 -18 3 -5 13 10 14 17 7 26 -8 9 -8 15 0 20 6 4 10 3
9 -2 -4 -22 3 -24 23 -7 l21 19 -19 -30 c-14 -23 -15 -27 -3 -18 9 7 20 9 24
5 5 -4 5 -1 1 6 -4 6 -2 12 3 12 6 0 11 -8 11 -17 0 -15 2 -16 9 -3 6 8 7 18
4 23 -3 5 4 4 15 -2 14 -7 23 -8 27 -1 4 6 11 8 16 4 5 -3 7 -9 4 -14 -3 -5 0
-12 6 -16 7 -4 9 -3 6 3 -8 12 20 39 30 29 3 -3 1 -6 -5 -6 -7 0 -12 -5 -12
-10 0 -7 6 -7 18 -1 9 5 19 10 22 12 3 1 16 -3 30 -11 21 -10 23 -10 13 1 -7
7 -13 17 -13 22 0 11 25 -14 33 -33 4 -12 6 -12 6 2 1 9 5 20 11 23 6 3 7 -1
4 -10 -5 -12 -2 -14 12 -8 17 6 18 5 4 -13 -14 -18 -14 -18 3 -5 13 10 14 17
7 26 -8 9 -8 15 0 20 6 4 10 3 9 -2 -4 -22 3 -24 23 -7 l21 19 -19 -30 c-14
-23 -15 -27 -3 -18 9 7 20 9 24 5 5 -4 5 -1 1 6 -4 6 -2 12 3 12 6 0 11 -8 11
-17 0 -15 2 -16 9 -3 6 8 7 18 4 23 -3 5 4 4 15 -2 14 -7 23 -8 27 -1 4 6 11
8 16 4 5 -3 7 -9 4 -14 -3 -5 0 -12 6 -16 7 -4 9 -3 6 3 -8 12 20 39 30 29 3
-3 1 -6 -5 -6 -7 0 -12 -5 -12 -10 0 -7 6 -7 18 -1 9 5 19 10 22 12 3 1 16 -3
30 -11 21 -10 23 -10 13 1 -7 7 -13 17 -13 22 0 11 25 -14 33 -33 4 -12 6 -12
6 2 1 9 5 20 11 23 6 3 7 -1 4 -10 -5 -12 -2 -14 12 -8 17 6 18 5 4 -13 -14
-18 -14 -18 3 -5 13 10 14 17 7 26 -8 9 -8 15 0 20 6 4 10 3 9 -2 -4 -22 3
-24 23 -7 l21 19 -19 -30 c-14 -23 -15 -27 -3 -18 9 7 20 9 24 5 5 -4 5 -1 1
6 -4 6 -2 12 3 12 6 0 11 -8 11 -17 0 -15 2 -16 9 -3 6 8 7 18 4 23 -3 5 4 4
15 -2 14 -7 23 -8 27 -1 4 6 11 8 16 4 5 -3 7 -9 4 -14 -3 -5 0 -12 6 -16 7
-4 9 -3 6 3 -8 12 20 39 30 29 3 -3 1 -6 -5 -6 -7 0 -12 -5 -12 -10 0 -7 6 -7
18 -1 22 12 32 11 57 -1 16 -9 18 -8 8 3 -7 7 -13 17 -13 22 0 11 25 -14 33
-33 4 -12 6 -12 6 2 1 9 5 20 11 23 6 3 7 -1 4 -10 -5 -12 -2 -14 12 -8 17 6
18 5 4 -13 -14 -18 -14 -18 3 -5 13 10 14 17 7 26 -8 9 -8 15 0 20 6 4 10 3 9
-2 -4 -22 3 -24 23 -7 l21 19 -19 -30 c-14 -23 -15 -27 -3 -18 9 7 20 9 24 5
5 -4 5 -1 1 6 -4 6 -2 12 3 12 6 0 11 -8 11 -17 0 -15 2 -16 9 -3 6 8 7 18 4
23 -3 5 4 4 15 -2 14 -7 23 -8 27 -1 4 6 11 8 16 4 5 -3 7 -9 4 -14 -3 -5 0
-12 6 -16 7 -4 9 -3 6 3 -8 12 20 39 30 29 3 -3 1 -6 -5 -6 -7 0 -12 -5 -12
-10 0 -7 6 -7 18 -1 22 12 32 11 57 -1 16 -9 18 -8 8 3 -7 7 -13 17 -13 22 0
11 25 -14 33 -33 4 -12 6 -12 6 2 1 9 5 20 11 23 6 3 7 -1 4 -10 -5 -12 -2
-14 12 -8 17 6 18 5 4 -13 -14 -18 -14 -18 3 -5 13 10 14 17 7 26 -8 9 -8 15
0 20 6 4 10 3 9 -2 -4 -22 3 -24 23 -7 l21 19 -19 -30 c-14 -23 -15 -27 -3
-18 9 7 20 9 24 5 5 -4 5 -1 1 6 -4 6 -2 12 3 12 6 0 11 -8 11 -17 0 -15 2
-16 9 -3 6 8 7 18 4 23 -3 5 4 4 15 -2 14 -7 23 -8 27 -1 4 6 11 8 16 4 5 -3
7 -9 4 -14 -3 -5 0 -12 6 -16 7 -4 9 -3 6 3 -8 12 20 39 30 29 3 -3 1 -6 -5
-6 -7 0 -12 -5 -12 -10 0 -7 6 -7 18 -1 22 12 32 11 57 -1 16 -9 18 -8 8 3 -7
7 -13 17 -13 22 0 11 25 -14 33 -33 4 -12 6 -12 6 2 1 9 5 20 11 23 6 3 7 -1
4 -10 -5 -12 -2 -14 12 -8 17 6 18 5 4 -13 -14 -18 -14 -18 3 -5 13 10 14 17
7 26 -8 9 -8 15 0 20 6 4 10 3 9 -2 -4 -22 3 -24 23 -7 l21 19 -19 -30 c-14
-23 -15 -27 -3 -18 9 7 20 9 24 5 5 -4 5 -1 1 5 -4 7 -2 13 3 13 6 0 11 -8 11
-17 0 -15 2 -16 9 -3 6 8 7 18 4 23 -3 5 4 4 15 -2 14 -7 23 -8 27 -1 4 6 11
8 16 4 5 -3 7 -9 4 -14 -3 -5 0 -12 6 -16 7 -4 9 -3 6 3 -8 12 20 39 30 29 3
-3 1 -6 -5 -6 -7 0 -12 -5 -12 -10 0 -7 6 -7 18 -1 9 5 19 10 22 12 3 1 15 -3
28 -10 19 -10 26 -10 40 1 14 11 15 11 9 -6 -6 -14 -4 -17 5 -9 7 5 27 9 45 8
18 -1 30 2 27 6 -2 4 -12 6 -22 4 -11 -2 -18 3 -18 14 0 10 6 18 13 18 7 0 10
-3 8 -7 -2 -4 2 -7 9 -7 8 0 11 9 8 24 -2 12 -9 23 -14 23 -5 0 -6 -5 -2 -12
5 -7 3 -8 -5 -4 -16 10 -5 21 21 21 15 0 21 7 24 28 1 15 -2 27 -7 27 -6 0 -7
-4 -4 -10 4 -6 -1 -7 -11 -3 -12 4 -14 8 -6 11 10 3 10 7 0 20 -11 13 -10 14
9 4 18 -10 21 -9 18 6 -1 9 -8 16 -15 14 -7 -2 -10 3 -7 12 3 8 -1 20 -8 26
-8 7 -12 16 -9 21 3 5 -2 6 -11 2 -10 -3 -21 0 -25 7 -7 11 -11 11 -25 0 -15
-12 -16 -12 -13 4 2 12 -4 20 -14 21 -15 3 -16 0 -8 -16 14 -24 -5 -26 -19 -1
-6 9 -11 11 -11 5 0 -7 -4 -13 -9 -13 -6 0 -8 9 -6 21 3 17 2 19 -10 9 -8 -7
-12 -16 -9 -21 5 -9 0 -10 -36 -13 -8 -1 -21 7 -29 17 -9 13 -16 16 -24 8 -18
-18 -31 -12 -16 6 13 16 12 17 -3 4 -13 -10 -15 -18 -8 -31 12 -23 13 -40 1
-21 -5 8 -18 15 -28 17 -10 1 -27 5 -38 9 -16 7 -18 6 -7 -6 19 -21 14 -31 -6
-11 -14 12 -16 22 -10 37 9 19 8 19 -5 2 -10 -12 -17 -15 -22 -7 -5 8 -11 8
-19 1 -7 -6 -16 -8 -19 -4 -10 10 -8 -6 4 -30 9 -19 7 -18 -10 3 -15 20 -17
28 -8 40 10 13 10 13 -5 1 -10 -7 -16 -17 -13 -21 3 -5 1 -11 -5 -15 -5 -3
-10 -2 -10 2 0 5 -9 14 -20 21 -21 13 -21 12 -3 -15 14 -21 14 -25 3 -18 -25
16 -40 14 -41 -3 0 -14 -1 -15 -7 -2 -4 8 -18 16 -31 18 -21 2 -22 0 -10 -15
12 -16 12 -16 -8 0 -13 12 -23 14 -26 7 -3 -6 -4 -5 -3 2 2 7 8 12 14 11 16
-4 35 24 22 32 -6 4 -10 3 -9 -2 3 -20 -2 -25 -16 -13 -9 7 -18 10 -22 7 -10
-11 -32 13 -26 29 3 10 -2 14 -18 14 -14 0 -19 3 -13 8 6 4 11 28 10 54 -1 25
2 44 5 42 4 -2 10 3 13 12 3 8 2 12 -4 9 -6 -3 -10 -1 -10 5 0 6 -5 8 -12 4
-7 -4 -8 -3 -4 5 4 6 13 8 19 4 7 -4 5 2 -3 12 -9 11 -10 16 -2 11 18 -11 15
10 -5 30 -17 17 -17 17 -1 11 10 -3 20 -2 23 3 4 6 -1 10 -9 10 -10 0 -13 6
-10 15 4 8 10 12 15 9 5 -3 6 2 3 11 -5 13 -9 13 -23 3 -14 -11 -14 -11 -4 3
7 9 9 20 5 24 -4 5 -2 5 5 1 6 -3 14 -2 18 4 3 5 -2 10 -12 10 -15 0 -16 2 -3
10 14 9 7 14 -13 11 -5 -1 -5 3 -2 9 4 6 12 9 19 7 6 -3 12 4 12 14 0 22 -7
24 -26 7 -12 -11 -12 -10 -3 2 11 14 13 21 13 36 0 4 8 0 17 -7 15 -12 16 -12
9 5 -6 19 -6 19 12 3 15 -14 19 -14 19 -2 0 8 -3 13 -6 11 -3 -2 -12 2 -19 10
-15 17 -16 17 26 4 29 -8 33 -7 28 7 -5 13 -4 14 9 3 9 -7 18 -10 22 -6 3 3 1
6 -5 6 -7 0 -12 5 -12 11 0 6 8 8 19 4 11 -3 23 0 27 6 5 8 3 9 -7 4 -12 -7
-12 -6 -1 7 7 9 9 18 5 20 -4 3 -3 4 3 2 6 -1 17 3 23 9 7 7 12 8 11 2 -4 -21
0 -35 11 -35 6 0 9 6 6 14 -7 19 3 28 18 16 8 -6 11 -1 9 18 -2 29 5 33 68 35
15 1 25 4 22 8 -2 4 3 12 11 19 17 14 21 45 5 35 -21 -13 -9 8 16 27 20 16 23
23 12 30 -9 6 -8 8 7 6 11 -2 20 3 20 11 0 8 8 15 18 17 9 1 15 -2 11 -7 -3
-5 -10 -7 -15 -3 -5 3 -8 1 -7 -4 2 -5 -9 -23 -24 -40 -15 -17 -24 -34 -19
-37 5 -2 12 2 15 11 3 8 10 13 15 9 5 -3 13 0 17 6 5 8 3 9 -6 4 -8 -5 -11 -3
-8 6 3 8 11 13 17 11 7 -1 10 2 7 7 -7 10 10 24 32 27 8 2 17 6 20 9 4 4 -2 5
-12 3 -10 -1 -21 3 -24 11 -3 9 0 11 8 6 10 -6 12 -4 7 9 -5 11 -2 16 8 14 7
-2 14 1 13 6 0 5 6 13 14 18 10 8 10 9 -2 5 -8 -2 -14 -11 -12 -18 2 -8 0 -10
-4 -6 -11 11 -14 38 -3 31 5 -3 9 -1 9 5 0 6 7 8 16 4 10 -4 14 -1 12 8 -1 8
-1 14 2 15 3 0 16 6 29 13 13 7 21 9 17 3 -3 -5 1 -13 10 -16 12 -4 15 -2 10
9 -7 18 10 20 18 3 3 -7 3 -2 0 12 -5 24 -4 24 10 6 10 -12 16 -15 16 -7 0 7
6 11 14 8 20 -8 27 3 15 25 -9 17 -8 18 10 6 11 -6 17 -16 14 -22 -4 -5 -1 -6
6 -2 9 6 8 13 -6 29 -9 12 -11 17 -4 10 20 -17 40 -5 34 20 -4 18 -3 19 6 7 7
-10 11 -11 11 -2 0 6 5 12 11 12 5 0 8 -4 5 -8 -3 -5 1 -9 9 -9 8 0 11 5 7 11
-13 21 -9 32 12 34 16 1 18 -1 6 -8 -13 -8 -13 -11 -1 -22 8 -7 11 -8 8 -2 -8
14 17 37 28 26 4 -4 1 4 -8 18 -11 17 -13 30 -7 40 9 13 10 13 11 0 1 -8 1
-18 0 -22 0 -5 4 -8 10 -8 7 0 9 10 5 28 -5 21 -4 23 4 10 6 -9 17 -15 25 -12
12 5 12 9 -3 23 -10 9 -11 12 -4 6 12 -8 14 -5 8 15 l-7 25 15 -25 c14 -25 14
-25 11 12 -3 30 1 40 25 58 25 19 27 26 19 48 -8 20 -7 23 4 14 10 -8 13 -7
13 8 0 10 -3 17 -6 15 -3 -2 -6 11 -7 28 l-2 32 16 -33 c9 -18 18 -30 21 -28
3 3 -1 12 -7 20 -16 19 -4 39 18 32 14 -5 13 -4 -1 8 -18 13 -25 32 -9 22 5
-3 8 20 7 52 -3 69 1 82 23 82 9 1 3 7 -14 14 -25 10 -27 13 -11 19 10 4 23 4
29 0 8 -5 8 -2 0 9 -7 8 -10 18 -6 21 3 4 1 7 -5 7 -5 0 -13 -6 -16 -12 -3 -7
-3 -3 -1 9 3 12 1 24 -5 28 -8 5 -8 11 1 21 6 8 9 14 5 14 -4 0 0 14 9 30 15
29 11 36 -18 31 -5 -1 -6 3 -2 9 3 6 11 8 16 5 5 -4 17 -1 26 5 17 10 17 10
-1 8 -12 -2 -20 4 -22 15 -2 13 1 15 9 9 7 -5 20 -12 29 -15 12 -4 16 -1 13
13 -4 23 19 44 40 37 8 -4 17 -1 21 5 4 7 3 8 -4 4 -7 -4 -12 -1 -12 9 0 11 5
15 15 12 8 -4 17 -1 21 5 4 7 3 8 -4 4 -7 -4 -12 -2 -12 4 0 6 -4 9 -9 6 -5
-4 -7 4 -3 16 4 17 7 19 11 6 3 -8 14 -14 24 -12 26 4 31 10 12 18 -11 4 -14
2 -9 -6 4 -7 3 -8 -4 -4 -24 14 10 52 41 47 4 -1 3 7 -2 18 -8 14 -7 22 7 32
15 13 16 12 4 -3 -10 -12 -10 -18 -1 -24 7 -4 9 -3 6 3 -8 13 27 45 38 36 5
-5 4 -1 -3 9 -10 13 -10 17 0 20 8 3 7 6 -4 11 -13 4 -16 1 -13 -14 3 -12 0
-17 -7 -13 -7 5 -8 2 -3 -6 5 -9 4 -11 -4 -6 -6 4 -8 13 -4 19 4 7 8 17 8 22
0 6 8 9 17 9 9 -1 15 5 13 15 -1 9 7 24 19 34 18 15 19 16 2 10 -14 -5 -17 -3
-11 7 5 9 4 11 -4 6 -6 -4 -9 -12 -6 -17 4 -5 1 -9 -4 -9 -14 0 -14 17 -1 25
6 4 8 10 5 15 -3 5 -1 11 5 15 6 4 8 10 5 15 -3 4 1 10 9 13 18 7 14 -22 -5
-33 -10 -7 -9 -9 7 -8 17 2 21 8 19 36 -1 18 4 41 11 50 16 21 17 32 3 32 -5
0 -8 -4 -4 -9 3 -5 0 -13 -7 -18 -19 -11 -39 -13 -32 -2 3 5 9 7 14 4 13 -8
19 32 6 46 -8 9 -8 10 3 4 11 -6 12 1 8 39 -4 28 -2 46 4 46 6 0 7 -6 3 -12
-4 -7 -3 -10 1 -5 5 4 9 16 10 27 1 14 -2 17 -10 10 -9 -8 -11 -4 -7 15 2 14
8 23 12 20 5 -3 7 3 5 12 -1 10 -7 17 -12 16 -5 -1 -10 5 -10 13 0 8 7 14 16
14 10 0 12 3 5 8 -10 7 -20 27 -23 47 0 6 8 10 18 10 11 0 23 3 27 7 3 4 -3 6
-15 3 -14 -3 -25 3 -33 18 -10 19 -9 21 4 9 13 -10 18 -10 24 -1 4 8 3 9 -4 5
-11 -6 -16 6 -13 27 0 4 -3 7 -9 7 -6 0 -9 6 -8 13 2 7 -6 12 -19 11 -12 0
-20 3 -17 8 3 4 15 8 27 9 21 0 21 1 2 8 -11 5 -23 7 -26 5 -3 -2 -6 4 -6 12
0 9 6 13 15 9 12 -4 13 -3 3 9 -16 19 -21 65 -9 72 15 9 -2 24 -29 24 -23 0
-25 3 -21 35 3 27 1 32 -9 23 -8 -6 -16 -8 -20 -4 -3 3 -1 6 7 6 10 0 10 3 0
15 -11 13 -10 15 6 9 18 -5 18 -5 0 6 -14 9 -20 9 -25 1 -5 -8 -11 -4 -18 11
-12 27 -6 51 10 41 7 -3 8 -2 4 2 -12 14 -38 15 -30 2 3 -7 -3 -4 -14 6 -11 9
-23 15 -26 12 -4 -3 -5 -2 -2 1 2 4 0 15 -6 26 -10 18 -9 18 11 8 12 -6 24 -9
28 -6 3 3 0 6 -6 6 -7 0 -12 10 -12 23 0 18 2 19 11 7 9 -12 10 -12 5 4 -4 10
-1 26 6 34 10 12 10 14 1 8 -18 -10 -16 9 3 25 12 10 13 14 2 20 -10 5 -13 26
-12 68 1 34 -2 58 -7 55 -5 -3 -9 0 -9 5 0 6 6 11 14 11 8 0 18 5 22 12 4 7 3
8 -4 4 -7 -4 -12 -3 -12 3 0 5 -3 17 -7 27 -5 13 -3 15 8 9 8 -4 11 -5 7 0 -4
4 -2 15 5 24 10 14 10 14 -5 3 -13 -10 -18 -10 -24 -1 -4 7 -2 15 4 17 7 2 12
9 12 15 0 8 -4 7 -12 -1 -7 -7 -16 -12 -22 -12 -6 0 -5 5 2 12 17 17 15 33 -2
19 -11 -9 -13 -6 -10 20 2 17 7 35 10 41 4 7 2 8 -4 4 -7 -4 -12 -2 -12 3 0 6
6 11 13 11 8 0 7 3 -3 9 -8 6 -18 7 -22 5 -4 -3 -18 2 -30 12 -16 11 -17 15
-5 11 9 -4 17 -2 17 2 0 5 3 18 6 28 5 17 5 17 -6 0 -6 -9 -16 -15 -21 -11 -6
3 -4 16 7 32 9 15 13 24 9 20 -5 -4 -15 -2 -24 5 -14 10 -14 10 -3 -5 11 -13
11 -18 0 -24 -7 -4 -10 -4 -6 1 9 9 -11 37 -21 30 -4 -2 -8 3 -8 11 0 9 4 11
10 5 11 -11 37 -3 37 11 0 7 -5 6 -13 -1 -19 -15 -30 -2 -15 18 10 13 10 14
-2 4 -17 -15 -50 -17 -50 -3 0 5 8 7 18 4 13 -5 14 -4 3 4 -7 5 -10 15 -7 21
5 7 2 10 -6 9 -8 -2 -12 4 -10 17 4 18 1 17 -19 -5 -15 -17 -20 -19 -16 -8 5
14 -3 23 -33 38 -22 11 -40 23 -40 25 0 3 13 -1 28 -9 23 -12 29 -12 29 -1 0
7 -7 11 -15 7 -9 -3 -13 -1 -9 5 3 5 -3 9 -14 8 -11 -1 -25 -8 -30 -16 -6 -10
-9 -10 -9 -1 0 6 -9 12 -20 12 -11 0 -20 4 -20 9 0 12 33 9 42 -4 4 -5 6 0 5
12 -1 17 -4 20 -15 11 -10 -9 -16 -8 -22 2 -5 8 -7 17 -5 21 6 8 -25 5 -49 -6
-13 -6 -21 -5 -24 3 -2 6 -10 8 -18 5 -7 -3 -12 -9 -9 -13 3 -5 1 -11 -4 -15
-6 -3 -8 3 -6 15 2 11 0 21 -6 21 -5 1 -13 2 -18 3 -5 0 -13 5 -18 10 -5 5 -3
6 5 2 8 -5 12 1 12 18 0 13 -6 27 -12 29 -10 4 -10 6 0 6 15 1 16 31 1 31 -5
0 -7 -5 -3 -12 5 -7 3 -8 -6 -3 -11 7 -11 10 2 19 13 8 14 14 5 34 -9 18 -8
25 4 33 9 5 10 9 2 9 -6 0 -15 -4 -18 -10 -3 -5 -11 -10 -16 -10 -6 0 -3 7 5
16 9 8 13 21 9 27 -12 19 -12 37 -2 37 6 0 7 5 3 11 -5 8 -9 8 -14 -1 -4 -7
-13 -9 -20 -5 -8 5 -6 13 9 26 21 20 29 35 13 25 -5 -3 -16 4 -25 15 -20 22
-22 33 -5 23 7 -5 8 -3 3 6 -6 10 -11 9 -22 -5 -12 -17 -13 -17 -13 -2 0 10 7
20 15 23 8 4 15 11 15 16 0 7 -4 7 -13 0 -8 -7 -17 -6 -30 3 -16 11 -16 13 -1
19 13 5 14 9 4 21 -6 7 -17 12 -24 9 -20 -8 -42 24 -27 39 10 9 11 8 6 -4 -4
-10 -1 -20 5 -24 14 -9 5 44 -10 59 -8 8 -9 5 -4 -9 4 -11 4 -17 -1 -13 -4 4
-14 3 -22 -3 -9 -9 -13 -8 -13 0 0 6 4 11 8 11 5 0 9 7 9 15 0 8 -4 12 -9 9
-11 -7 -10 9 2 24 7 9 7 9 -2 2 -18 -15 -28 -12 -28 10 0 10 -13 33 -30 50
-16 17 -30 26 -30 20 0 -5 -11 -9 -24 -8 -20 2 -23 5 -15 20 8 15 6 18 -16 18
-23 0 -30 10 -26 34 1 5 -4 5 -11 -1 -7 -5 -22 -13 -32 -17 -16 -5 -17 -4 -6
9 7 9 10 18 6 22 -3 3 -6 1 -6 -5 0 -6 -7 -9 -17 -5 -10 4 -14 2 -10 -4 3 -5
0 -10 -8 -10 -13 0 -13 3 0 17 14 16 14 18 1 23 -9 4 -18 1 -22 -5 -5 -7 -2
-8 7 -3 8 5 11 4 6 0 -4 -5 -18 -10 -30 -12 -19 -2 -20 -2 -4 8 9 5 17 15 17
21 0 6 -7 5 -17 -3 -9 -8 -14 -9 -10 -3 4 7 -3 12 -19 12 -15 0 -30 5 -34 12
-6 9 -9 9 -13 -1 -4 -12 -7 -11 -16 1 -8 11 -11 12 -11 2 0 -8 -5 -10 -12 -6
-7 5 -9 2 -5 -9 4 -12 2 -14 -10 -10 -12 5 -14 3 -8 -7 5 -9 4 -11 -4 -6 -9 6
-9 11 0 22 6 8 9 17 5 21 -3 3 -6 1 -6 -6 0 -7 -7 -11 -15 -8 -8 4 -17 1 -21
-5 -5 -7 -2 -8 6 -3 8 5 11 4 6 -3 -4 -6 -14 -8 -23 -5 -11 4 -14 3 -9 -5 5
-8 2 -10 -8 -6 -9 3 -16 10 -16 16 0 5 4 7 9 3 5 -3 12 -1 16 4 3 6 -6 8 -21
5 -18 -3 -23 -1 -18 7 4 8 3 9 -5 5 -9 -6 -9 -11 -1 -21 8 -10 8 -15 -1 -21
-7 -4 -10 -3 -6 2 3 5 -2 18 -10 29 -15 19 -15 19 -9 -10 4 -16 3 -25 -1 -20
-13 17 -68 1 -57 -16 3 -5 -2 -6 -10 -3 -9 3 -16 10 -16 16 0 5 5 6 12 2 7 -4
8 -3 4 5 -4 6 -2 18 4 26 23 27 5 15 -25 -17 -17 -18 -25 -29 -19 -25 6 3 11
0 11 -8 0 -13 -4 -13 -26 1 l-26 17 24 -27 c26 -28 20 -37 -6 -10 -13 12 -18
13 -24 3 -5 -8 -3 -17 4 -22 8 -6 7 -7 -3 -4 -8 2 -14 9 -13 14 1 5 -8 10 -20
10 -12 1 -17 -1 -11 -5 13 -8 15 -44 2 -36 -5 3 -6 10 -3 15 4 5 2 9 -3 9 -17
0 -22 -13 -10 -27 9 -11 8 -13 -3 -11 -8 2 -13 -2 -12 -8 1 -7 -6 -10 -17 -7
-11 3 -20 11 -20 19 0 7 -10 20 -22 29 -13 8 -22 18 -20 20 1 3 2 6 1 8 -7 24
-5 38 5 34 7 -3 13 1 13 9 0 12 -4 12 -24 -1 -21 -14 -24 -14 -29 0 -3 8 -11
12 -17 8 -6 -4 -7 -1 -2 7 6 10 11 10 20 -4 12 -15 13 -15 18 4 3 11 1 18 -3
15 -5 -3 -15 -2 -24 1 -13 5 -14 9 -5 20 10 12 8 13 -6 8 -13 -5 -16 -4 -11 4
5 8 2 10 -8 6 -9 -3 -16 -11 -16 -17 0 -6 -3 -7 -6 -4 -4 4 -2 12 4 19 7 9 6
19 -4 32 -8 11 -14 15 -14 10 0 -6 5 -15 12 -22 9 -9 8 -12 -5 -12 -10 0 -17
8 -17 19 0 11 -9 23 -20 26 -11 4 -18 10 -15 15 3 4 -1 13 -8 19 -10 8 -14 7
-14 -4 0 -8 5 -11 10 -8 6 3 7 1 3 -6 -6 -9 -11 -9 -22 0 -13 11 -18 6 -15
-14 1 -5 -3 -6 -9 -2 -6 3 -8 11 -4 16 3 6 -3 13 -15 16 -12 3 -21 9 -21 15 0
5 10 4 23 -2 21 -11 21 -10 3 4 -10 9 -24 13 -29 9 -6 -4 -8 0 -4 10 4 11 2
14 -8 10 -8 -3 -12 -10 -8 -17 3 -6 -2 -4 -13 5 -20 17 -49 15 -38 -3 4 -7 2
-8 -4 -4 -6 3 -9 15 -7 26 3 14 0 18 -8 13 -22 -14 -77 -12 -77 3 0 8 -5 14
-11 14 -5 0 -8 -4 -5 -8 2 -4 -5 -9 -17 -9 -12 -1 -23 -7 -25 -13 -4 -12 -23
-14 -19 -1 1 5 -2 8 -8 8 -5 -1 -9 -6 -7 -12 1 -5 -7 1 -18 14 -18 21 -25 18
-22 -10 1 -3 -6 -6 -14 -6 -7 0 -14 4 -14 9 0 4 4 8 9 8 5 0 11 9 14 20 3 13
11 18 20 14 8 -3 17 -1 21 4 6 10 -30 9 -40 -1 -10 -10 -26 -9 -20 1 2 4 -4 8
-15 8 -19 0 -19 -1 2 -17z m-64 -42 c0 -8 -6 -14 -14 -14 -9 0 -10 4 -2 14 6
7 12 13 14 13 1 0 2 -6 2 -13z m-67 -31 c0 -3 -4 -8 -10 -11 -5 -3 -10 -1 -10
4 0 6 5 11 10 11 6 0 10 -2 10 -4z m-100 -53 c0 -2 -8 -3 -17 -1 -11 2 -17 -2
-15 -10 1 -8 -2 -11 -8 -7 -16 10 8 35 26 28 8 -3 14 -7 14 -10z m685 -21 c-3
-3 -11 0 -18 7 -9 10 -8 11 6 5 10 -3 15 -9 12 -12z m-254 -99 c13 -16 12 -17
-3 -4 -17 13 -22 21 -14 21 2 0 10 -8 17 -17z m874 7 c3 -5 1 -10 -4 -10 -6 0
-11 5 -11 10 0 6 2 10 4 10 3 0 8 -4 11 -10z m30 0 c3 -5 1 -10 -4 -10 -6 0
-11 5 -11 10 0 6 2 10 4 10 3 0 8 -4 11 -10z m-1100 -9 c-3 -5 -1 -12 5 -16 5
-3 15 -16 20 -28 11 -22 11 -22 -5 -2 -9 11 -19 19 -23 18 -4 -2 -7 3 -8 10 0
14 5 27 12 27 3 0 3 -4 -1 -9z m92 3 c-3 -3 -12 -4 -19 -1 -8 3 -5 6 6 6 11 1
17 -2 13 -5z m50 -26 c-3 -7 -5 -2 -5 12 0 14 2 19 5 13 2 -7 2 -19 0 -25z
m-59 8 c2 -3 -10 -4 -27 -4 -18 1 -34 4 -36 8 -5 8 55 3 63 -4z m-98 -38 c0
-19 -16 -5 -17 14 -2 18 0 20 7 8 5 -8 10 -18 10 -22z m140 28 c0 -2 -7 -6
-15 -10 -8 -3 -15 -1 -15 4 0 6 7 10 15 10 8 0 15 -2 15 -4z m40 -3 c0 -5 -9
-19 -19 -32 -14 -18 -20 -21 -26 -11 -5 9 -4 11 3 6 7 -4 12 -3 12 3 0 5 -3
11 -7 14 -5 2 -2 2 5 1 7 -2 15 3 18 11 6 16 14 20 14 8z m-580 -24 c0 -5 -4
-9 -8 -9 -5 0 -9 7 -9 15 0 8 4 12 9 9 4 -3 8 -9 8 -15z m473 1 c-3 -11 -7
-20 -9 -20 -2 0 -4 9 -4 20 0 11 4 20 9 20 5 0 7 -9 4 -20z m42 -9 c-6 -5 -25
10 -25 20 0 5 6 4 14 -3 8 -7 12 -15 11 -17z m-244 -4 c-10 -9 -11 -8 -5 6 3
10 9 15 12 12 3 -3 0 -11 -7 -18z m79 -22 c11 -16 11 -17 0 -7 -20 17 -35 15
-20 -3 15 -18 5 -34 -12 -17 -7 7 -17 8 -30 1 -12 -6 -18 -6 -18 1 0 5 7 10
16 10 8 0 13 4 9 10 -3 5 -13 6 -23 3 -18 -7 -17 -5 12 17 13 10 17 10 12 3
-4 -8 -1 -13 9 -13 12 0 15 5 9 22 -6 19 -5 20 7 7 8 -8 21 -23 29 -34z m260
41 c0 -3 -4 -8 -10 -11 -5 -3 -10 -1 -10 4 0 6 5 11 10 11 6 0 10 -2 10 -4z
m96 -42 c-18 -17 -23 -18 -23 -1 0 7 9 14 19 14 16 2 16 0 4 -13z m319 -4 c3
-6 -1 -7 -9 -4 -18 7 -21 14 -7 14 6 0 13 -4 16 -10z m-293 -8 c-6 -5 -18 -16
-25 -27 -12 -15 -15 -16 -22 -4 -5 8 -5 11 0 7 5 -5 14 1 22 12 8 11 20 20 26
20 9 0 9 -2 -1 -8z m-1227 -12 c3 -6 -4 -10 -17 -10 -18 0 -20 2 -8 10 19 12
18 12 25 0z m2317 -25 c4 -5 8 -14 8 -20 -1 -5 -5 -2 -11 8 -6 9 -15 14 -21
11 -7 -4 -8 -2 -4 4 4 7 2 12 -3 12 -6 0 -11 5 -11 11 0 12 27 -5 42 -26z
m-1508 7 c2 -4 -4 -8 -14 -8 -10 0 -16 4 -14 8 3 4 9 8 14 8 5 0 11 -4 14 -8z
m-434 -38 c0 -8 -19 -13 -24 -6 -3 5 1 9 9 9 8 0 15 -2 15 -3z m1712 -114 c-2
-8 3 -10 13 -7 8 4 15 2 15 -4 0 -6 -10 -9 -22 -7 -11 2 -23 -3 -26 -11 -3 -8
0 -11 7 -7 7 5 9 1 5 -9 -4 -9 -9 -14 -12 -11 -7 8 -11 56 -4 55 20 -3 25 3
12 12 -13 9 -13 10 0 6 8 -2 14 -10 12 -17z m-42 -10 c0 -5 -5 -10 -11 -10 -5
0 -7 5 -4 10 3 6 8 10 11 10 2 0 4 -4 4 -10z m394 2 c3 -5 -1 -9 -9 -9 -8 0
-12 4 -9 9 3 4 7 8 9 8 2 0 6 -4 9 -8z m-254 -36 c0 -2 -8 -10 -17 -17 -16
-13 -17 -12 -4 4 13 16 21 21 21 13z m26 -28 c4 -7 4 -10 -1 -6 -4 4 -15 2
-24 -5 -14 -11 -14 -10 -2 6 16 20 18 21 27 5z m283 -51 c8 -10 7 -14 -4 -14
-8 0 -12 4 -9 8 2 4 -2 10 -8 12 -8 4 -9 6 -2 6 6 1 17 -5 23 -12z m-2942 -36
c-1 -11 -6 -17 -14 -14 -10 4 -11 9 -2 19 15 19 18 18 16 -5z m2960 -37 c-3
-3 -12 -4 -19 -1 -8 3 -5 6 6 6 11 1 17 -2 13 -5z m8 -35 c-4 -5 -12 -9 -18
-8 -9 0 -8 2 1 6 6 2 9 10 6 15 -4 7 -2 8 5 4 6 -4 9 -12 6 -17z m-225 -15 c0
-8 -19 -13 -24 -6 -3 5 1 9 9 9 8 0 15 -2 15 -3z m16 -29 c-3 -23 -12 -26 -13
-5 -1 11 2 20 7 20 4 0 7 -7 6 -15z m224 -15 c0 -5 -5 -10 -11 -10 -5 0 -7 5
-4 10 3 6 8 10 11 10 2 0 4 -4 4 -10z m-3140 -118 c0 -15 -2 -15 -10 -2 -13
20 -13 33 0 25 6 -3 10 -14 10 -23z m-80 -12 c0 -5 -5 -10 -11 -10 -5 0 -7 5
-4 10 3 6 8 10 11 10 2 0 4 -4 4 -10z m3364 -18 c2 -4 1 -14 -3 -21 -6 -9 -10
-10 -15 -2 -4 6 -13 8 -19 4 -7 -4 -6 0 2 10 15 18 27 22 35 9z m-3540 -54
c-3 -4 -9 -8 -15 -8 -5 0 -9 4 -9 8 0 5 7 9 15 9 8 0 12 -4 9 -9z m36 2 c0 -5
-2 -10 -4 -10 -3 0 -8 5 -11 10 -3 6 -1 10 4 10 6 0 11 -4 11 -10z m-130 -75
c-7 -9 -15 -13 -19 -10 -3 3 1 10 9 15 21 14 24 12 10 -5z m3805 6 c3 -5 2
-12 -3 -15 -5 -3 -9 1 -9 9 0 17 3 19 12 6z m-3837 -13 c-3 -7 -10 -14 -16
-14 -25 -3 -27 -5 -12 -14 8 -5 10 -10 4 -10 -21 0 -24 14 -7 32 18 21 37 24
31 6z m3673 -191 c-10 -9 -11 -8 -5 6 3 10 9 15 12 12 3 -3 0 -11 -7 -18z m46
-16 c0 -11 -5 -18 -9 -15 -4 3 -5 11 -1 19 7 21 12 19 10 -4z m43 -7 c0 -8
-19 -13 -24 -6 -3 5 1 9 9 9 8 0 15 -2 15 -3z m-4010 -44 c0 -5 -5 -10 -11
-10 -5 0 -7 5 -4 10 3 6 8 10 11 10 2 0 4 -4 4 -10z m4249 -53 c8 -10 7 -14
-2 -14 -8 0 -14 6 -14 14 0 7 1 13 2 13 2 0 8 -6 14 -13z m11 -62 c0 -5 -5 -3
-10 5 -5 8 -10 20 -10 25 0 6 5 3 10 -5 5 -8 10 -19 10 -25z m10 -165 c0 -4
-7 -13 -15 -20 -17 -14 -21 -35 -5 -25 6 3 7 -1 4 -9 -10 -26 -20 -18 -20 13
0 17 4 27 10 24 5 -4 7 0 4 9 -4 9 0 15 8 15 8 0 14 -4 14 -7z m-4585 -160
c-3 -5 -11 -10 -16 -10 -6 0 -7 5 -4 10 3 6 11 10 16 10 6 0 7 -4 4 -10z
m4706 -173 c-6 -8 -7 -17 -3 -22 4 -4 -3 -2 -15 6 -23 14 -14 29 16 29 10 0
11 -3 2 -13z m-4831 -87 c0 -5 -5 -10 -11 -10 -5 0 -7 5 -4 10 3 6 8 10 11 10
2 0 4 -4 4 -10z m-4 -32 c5 -7 3 -8 -6 -3 -9 6 -10 2 -5 -15 6 -20 5 -21 -8
-9 -11 10 -12 18 -5 27 13 15 15 15 24 0z m4874 -22 c0 -3 -4 -8 -10 -11 -5
-3 -10 -1 -10 4 0 6 5 11 10 11 6 0 10 -2 10 -4z m-4902 -151 c-3 -3 -9 2 -12
12 -6 14 -5 15 5 6 7 -7 10 -15 7 -18z m4922 -50 c-7 -9 -15 -13 -19 -10 -3 3
1 10 9 15 21 14 24 12 10 -5z m-4900 -79 c0 -3 -4 -8 -10 -11 -5 -3 -10 -1
-10 4 0 6 5 11 10 11 6 0 10 -2 10 -4z m15 -166 c3 -5 1 -10 -4 -10 -6 0 -11
5 -11 10 0 6 2 10 4 10 3 0 8 -4 11 -10z m4830 -110 c3 -6 -1 -7 -9 -4 -18 7
-21 14 -7 14 6 0 13 -4 16 -10z m-54 -83 c-10 -9 -11 -8 -5 6 3 10 9 15 12 12
3 -3 0 -11 -7 -18z m-4591 -143 c0 -8 -19 -13 -24 -6 -3 5 1 9 9 9 8 0 15 -2
15 -3z m198 -145 c-3 -8 -7 -3 -11 10 -4 17 -3 21 5 13 5 -5 8 -16 6 -23z
m392 -139 c6 -11 8 -20 6 -20 -3 0 -10 9 -16 20 -6 11 -8 20 -6 20 3 0 10 -9
16 -20z m94 -206 c5 -14 4 -15 -9 -4 -17 14 -19 20 -6 20 5 0 12 -7 15 -16z
m131 -103 c3 -5 2 -12 -3 -15 -5 -3 -9 1 -9 9 0 17 3 19 12 6z m35 -36 c0 -2
-9 -3 -19 -2 -11 0 -18 5 -15 9 4 6 34 0 34 -7z m115 -47 c5 4 5 1 1 -5 -10
-18 -23 -16 -30 3 -5 13 -4 14 7 6 8 -7 18 -8 22 -4z m52 -53 c0 -8 -4 -12 -9
-9 -5 3 -6 10 -3 15 9 13 12 11 12 -6z m3224 -22 c13 -16 12 -17 -3 -4 -17 13
-22 21 -14 21 2 0 10 -8 17 -17z m-143 -106 c8 -10 6 -13 -7 -13 -11 0 -17 6
-14 13 3 7 6 13 8 13 1 0 7 -6 13 -13z m-58 -9 c0 -4 -6 -8 -14 -8 -8 0 -17 4
-20 8 -2 4 4 8 15 8 10 0 19 -4 19 -8z m-2920 -128 c0 -5 -2 -10 -4 -10 -3 0
-8 5 -11 10 -3 6 -1 10 4 10 6 0 11 -4 11 -10z m2690 -135 c0 -1 -9 -10 -19
-19 -13 -12 -21 -14 -26 -6 -4 6 -1 9 7 8 7 -2 12 4 10 14 -2 12 2 16 13 12 8
-3 15 -7 15 -9z m-2536 -47 c6 -4 16 -6 23 -3 8 2 10 -2 6 -12 -5 -12 -3 -14
7 -8 9 6 11 4 6 -4 -6 -9 -13 -8 -29 6 -31 25 -47 45 -47 57 0 6 6 2 12 -9 6
-11 16 -23 22 -27z m943 -67 c8 8 13 7 18 0 3 -6 3 -11 -2 -10 -4 1 -11 0 -15
-1 -5 -1 -11 -3 -15 -4 -5 -1 -18 -7 -30 -14 -17 -9 -22 -9 -26 3 -4 9 -1 12
9 8 9 -3 13 0 11 8 -2 8 -2 11 0 7 9 -16 25 -7 19 10 -6 16 -5 16 7 0 10 -12
17 -14 24 -7z m814 -8 c8 -10 9 -14 2 -10 -6 4 -14 3 -18 -3 -3 -5 1 -10 9
-10 8 0 20 8 25 18 9 14 10 15 11 1 0 -9 -3 -19 -7 -23 -4 -3 -8 -14 -9 -22
-1 -9 1 -13 4 -9 4 4 8 11 8 16 3 22 5 23 15 9 8 -12 9 -9 4 9 -6 21 -5 22 8
10 8 -8 12 -18 9 -24 -3 -5 3 -3 13 5 11 9 16 10 11 3 -9 -15 5 -17 22 -3 8 7
9 7 3 -1 -5 -6 -7 -18 -4 -27 5 -11 3 -13 -8 -7 -12 8 -12 6 0 -8 14 -18 26
-23 16 -8 -3 5 0 13 7 17 7 4 10 4 6 -1 -4 -4 -3 -16 3 -26 7 -14 6 -17 -4
-13 -8 3 -14 -2 -14 -11 0 -10 6 -14 16 -10 11 3 10 0 -3 -10 -14 -11 -16 -15
-5 -15 12 0 12 -2 -1 -10 -8 -5 -10 -10 -4 -10 7 0 14 -9 17 -20 3 -11 1 -18
-3 -15 -5 3 -11 1 -15 -5 -3 -5 -1 -10 4 -10 6 0 11 -5 11 -11 0 -5 -4 -7 -10
-4 -5 3 -10 2 -10 -3 0 -17 13 -22 29 -9 14 11 14 10 2 -6 -8 -10 -21 -15 -29
-12 -12 4 -13 3 -2 -10 7 -8 16 -13 20 -10 5 3 7 -3 5 -12 -1 -10 3 -25 9 -33
10 -13 9 -13 -6 -1 -10 7 -15 18 -11 25 3 6 2 7 -2 3 -12 -11 -15 -37 -4 -37
5 0 9 -8 9 -17 0 -15 -2 -16 -10 -3 -7 11 -9 9 -8 -10 1 -14 6 -30 11 -37 5
-7 6 -22 2 -34 -4 -12 -3 -19 2 -16 5 3 9 -3 9 -13 0 -10 -6 -16 -13 -13 -7 3
-11 9 -8 13 3 5 1 11 -4 15 -6 3 -8 -5 -5 -19 2 -14 -3 -31 -12 -40 -8 -9 -10
-16 -4 -16 6 0 13 7 16 15 4 8 11 15 17 15 8 0 7 -4 -1 -12 -8 -8 -8 -15 -1
-24 7 -8 7 -14 -1 -19 -6 -4 -9 -1 -8 7 2 8 -5 12 -19 10 -21 -3 -28 6 -24 31
0 4 -4 7 -10 7 -7 0 -9 -10 -5 -24 3 -14 2 -28 -4 -31 -5 -3 -7 0 -4 8 4 11
-2 14 -25 12 -19 -2 -28 1 -24 8 4 6 0 8 -8 5 -10 -4 -15 1 -15 12 0 10 3 17
7 14 4 -2 10 3 13 12 3 8 2 13 -3 9 -5 -3 -17 -2 -26 1 -22 9 0 24 27 19 22
-5 23 -1 1 16 -14 12 -16 12 -8 0 5 -10 4 -12 -4 -7 -6 4 -9 11 -6 16 3 4 -2
13 -10 20 -16 14 -10 34 9 27 6 -3 17 2 25 10 12 13 11 14 -9 8 -15 -5 -20 -4
-16 4 4 6 1 11 -6 11 -9 0 -9 3 2 10 8 5 11 10 6 10 -5 0 -2 8 5 17 8 10 9 14
2 10 -6 -4 -15 -2 -19 4 -4 7 -3 10 2 7 5 -3 18 -2 29 3 18 7 18 8 -5 9 l-25
0 25 20 c14 11 18 18 9 14 -10 -3 -20 0 -25 7 -4 7 -3 10 2 7 5 -3 15 1 23 9
12 13 11 14 -10 8 -22 -7 -23 -7 -9 10 8 11 10 16 5 13 -6 -4 -17 -3 -25 3
-11 6 -12 9 -2 9 7 0 12 8 10 18 -2 11 3 17 14 16 11 -1 14 4 11 14 -4 10 -2
13 5 8 17 -10 15 -1 -4 14 -12 11 -15 11 -12 0 2 -8 -6 -15 -17 -17 l-20 -3
20 9 c11 5 16 10 11 10 -5 1 -3 8 4 16 7 8 17 12 23 8 6 -3 7 -1 3 5 -5 9 -13
9 -27 1 -12 -6 -23 -8 -27 -5 -3 3 -1 6 4 6 5 0 10 9 11 20 1 11 -2 18 -8 15
-5 -4 -4 5 3 19 6 14 16 26 22 26 6 0 4 5 -4 10 -8 5 -10 10 -4 10 6 0 18 -8
25 -17z m-811 -27 c0 -6 5 -4 10 4 6 10 10 11 10 3 0 -24 -2 -28 -12 -25 -5 1
-6 -3 -3 -9 5 -8 10 -8 18 0 6 6 18 11 27 11 13 0 13 -1 0 -10 -8 -5 -10 -10
-4 -10 6 0 14 3 18 7 8 8 66 11 61 3 -1 -3 4 -12 13 -20 14 -13 15 -12 9 4 -5
13 -3 17 7 13 8 -3 17 -1 20 6 3 7 4 3 1 -8 -4 -15 0 -21 15 -22 11 -1 23 3
26 9 5 7 2 9 -8 6 -8 -4 -15 0 -15 7 0 16 31 4 43 -17 5 -7 2 -8 -7 -3 -8 5
-11 4 -6 -1 5 -5 13 -10 18 -10 5 -1 10 -2 12 -4 14 -11 33 -4 35 14 1 16 -1
18 -8 6 -5 -8 -10 -10 -10 -5 0 6 4 16 9 23 6 11 10 10 16 -5 5 -10 7 -24 6
-32 -1 -7 2 -10 9 -6 6 4 9 13 6 21 -3 8 -1 14 5 14 6 0 7 5 4 10 -3 6 -1 10
5 10 7 0 10 -6 7 -14 -3 -8 0 -17 8 -20 9 -3 12 0 9 8 -3 8 0 17 7 22 7 4 10
3 7 -2 -3 -5 1 -16 10 -24 14 -13 15 -12 9 4 -6 14 -4 17 8 12 9 -3 13 -2 10
3 -3 5 -1 13 5 16 6 4 9 1 8 -7 -2 -9 7 -12 30 -11 20 1 32 -3 31 -10 -3 -27
2 -37 19 -38 11 0 12 -2 4 -6 -7 -3 -20 1 -29 9 -14 11 -16 11 -8 -2 14 -23
16 -70 3 -67 -6 1 -13 -7 -15 -18 -2 -15 -1 -16 5 -5 7 16 25 20 37 9 3 -4 1
-10 -6 -15 -8 -5 -10 -3 -4 6 5 8 4 11 -3 6 -6 -4 -8 -14 -5 -23 4 -11 3 -14
-6 -9 -9 6 -9 3 1 -13 7 -12 17 -21 23 -21 5 0 3 -5 -5 -10 -8 -5 -16 -17 -17
-27 -1 -10 -4 -30 -8 -45 -3 -16 -1 -28 4 -28 6 0 8 9 6 20 -2 12 0 18 6 15 5
-4 6 -11 3 -17 -5 -8 -1 -9 12 -5 18 7 18 7 1 -7 -12 -9 -18 -25 -17 -43 1
-15 1 -31 0 -35 -3 -10 -7 -26 -9 -35 -1 -5 -6 -1 -11 7 -6 9 -10 10 -10 3 0
-18 21 -27 30 -12 5 7 6 17 4 21 -3 4 0 8 5 8 15 0 14 -12 -5 -38 -13 -19 -19
-20 -37 -11 l-22 11 23 -21 c28 -27 28 -29 -3 -23 -14 2 -25 9 -25 14 0 5 -5
6 -11 3 -6 -5 -5 -11 5 -18 12 -9 13 -16 5 -27 -9 -13 -10 -12 -5 3 5 16 -8
25 -17 10 -2 -5 -2 -2 -1 5 2 6 -2 12 -8 12 -6 0 -5 7 3 18 13 15 12 16 -3 4
-9 -8 -14 -20 -11 -28 4 -10 0 -12 -13 -7 -11 4 -15 3 -10 -5 3 -6 2 -13 -3
-16 -10 -7 -9 20 2 30 4 4 7 11 7 16 0 5 -7 3 -15 -6 -9 -8 -23 -12 -33 -9
-14 5 -15 3 -4 -8 19 -21 14 -31 -6 -12 -14 13 -16 23 -10 38 9 19 8 19 -5 2
-10 -12 -17 -15 -22 -7 -5 8 -11 8 -21 -1 -8 -6 -14 -8 -14 -4 0 5 -3 6 -6 3
-3 -4 0 -17 6 -30 11 -22 11 -22 -9 2 -15 20 -17 28 -8 40 10 13 10 13 -5 1
-10 -7 -16 -17 -13 -21 3 -5 1 -11 -5 -15 -5 -3 -10 -2 -10 2 0 5 -9 14 -20
21 -21 13 -21 12 -3 -15 17 -27 17 -28 -1 -13 -23 18 -28 17 -37 -7 -7 -16 -8
-16 -8 -1 -1 11 -6 15 -16 12 -8 -4 -15 -2 -15 4 0 5 13 8 30 7 16 -1 27 1 24
6 -3 5 -10 7 -15 4 -5 -4 -9 0 -9 7 0 8 -3 9 -8 3 -11 -16 -34 -17 -43 -3 -7
11 -9 11 -9 0 0 -7 -5 -10 -12 -6 -7 4 -8 3 -4 -5 4 -6 11 -9 16 -6 16 10 20
-13 4 -26 -8 -7 -14 -8 -13 -3 4 25 -3 27 -22 4 -11 -14 -17 -19 -13 -11 4 8
8 25 10 38 2 20 0 22 -12 12 -17 -14 -19 -23 -2 -13 7 4 8 3 4 -4 -4 -6 -14
-8 -23 -5 -12 5 -14 3 -8 -7 6 -9 4 -11 -4 -5 -9 5 -10 10 -2 18 6 6 11 15 11
21 0 5 -9 -1 -20 -14 -11 -13 -20 -19 -20 -14 0 6 5 15 11 21 8 8 7 13 -2 18
-7 5 -10 4 -6 -2 3 -5 0 -10 -8 -10 -8 0 -13 3 -10 5 3 3 -3 15 -12 26 -14 15
-14 18 -2 8 9 -6 20 -8 24 -4 5 4 5 1 1 -5 -5 -9 -2 -11 10 -6 14 5 12 9 -11
21 l-28 14 29 24 c16 13 22 23 14 22 -9 -2 -14 4 -12 15 2 9 -2 17 -8 17 -6 0
-8 -4 -5 -10 10 -16 -1 -11 -16 7 -10 11 -10 14 -1 9 7 -4 12 -2 12 4 0 6 5 8
12 4 6 -4 8 -3 4 4 -3 5 0 13 6 16 7 3 0 4 -17 1 -16 -2 -24 -2 -17 1 6 3 9
11 6 16 -4 7 -2 8 4 4 13 -8 17 6 5 18 -4 3 -7 15 -8 26 -1 15 2 17 16 9 15
-7 17 -6 13 6 -4 8 -10 15 -15 15 -5 0 -9 5 -9 11 0 6 7 9 14 6 10 -4 13 -1 9
9 -3 8 -11 13 -17 11 -7 -3 -12 3 -12 13 0 15 4 16 18 9 14 -7 16 -6 12 6 -4
8 -10 15 -15 15 -5 0 -9 8 -9 18 0 14 2 15 10 2 7 -12 9 -10 7 7 0 12 -4 21
-7 20 -3 -1 -6 3 -7 8 -1 6 5 9 14 7 13 -3 13 -1 2 11 -8 8 -17 13 -20 11 -4
-2 -9 2 -12 10 -4 10 0 12 14 9 10 -3 19 -9 19 -14 0 -5 6 -9 13 -9 6 1 -1 12
-18 25 -16 13 -26 27 -22 31 4 4 7 3 7 -3 0 -6 9 -13 21 -16 12 -3 18 -3 15 0
-9 9 11 30 29 30 8 0 15 -5 15 -11z m-460 -16 c0 -5 -5 -10 -11 -10 -5 0 -7 5
-4 10 3 6 8 10 11 10 2 0 4 -4 4 -10z m-34 -9 c-10 -16 18 -18 51 -4 41 17 43
17 43 -4 0 -15 2 -16 10 -3 7 11 9 6 6 -18 -2 -18 0 -35 5 -38 15 -9 10 -24
-8 -24 -17 -1 -17 -1 -1 -11 20 -11 13 -43 -8 -35 -8 3 -11 0 -7 -9 3 -8 9
-12 14 -9 5 3 9 -2 9 -11 0 -12 -5 -15 -17 -11 -15 5 -14 3 2 -10 20 -15 20
-15 1 -30 -11 -8 -14 -14 -7 -14 7 0 9 -5 5 -12 -4 -7 -3 -8 5 -4 6 4 8 13 5
19 -4 7 -3 9 1 4 15 -13 13 -48 -2 -43 -18 7 -16 -3 5 -22 10 -10 12 -13 5 -8
-10 6 -12 4 -7 -8 3 -9 1 -16 -6 -16 -7 0 -6 -6 4 -16 12 -11 13 -20 6 -34 -8
-14 -6 -21 6 -28 15 -8 15 -10 0 -15 -11 -5 -15 -3 -10 5 4 7 3 8 -4 4 -9 -5
-8 -13 3 -29 13 -21 13 -23 -6 -24 -17 -2 -18 1 -9 13 7 8 9 14 6 14 -4 0 -19
-14 -33 -30 -14 -17 -28 -29 -31 -26 -3 3 1 12 8 21 8 10 9 15 1 15 -6 0 -11
-5 -11 -11 0 -5 -4 -8 -9 -4 -5 3 -13 0 -17 -6 -4 -7 -3 -9 3 -6 5 3 10 0 10
-8 0 -11 -4 -12 -13 -4 -7 5 -25 12 -40 15 -16 3 -31 8 -34 11 -3 3 5 3 18 0
28 -7 29 9 1 18 -17 6 -19 9 -8 17 11 8 12 10 1 15 -10 4 -8 9 7 20 20 14 20
40 0 28 -5 -4 -9 -1 -9 4 0 6 4 11 8 11 4 0 7 15 7 33 -1 17 4 36 9 40 7 5 5
7 -4 4 -8 -2 -14 -13 -14 -25 1 -12 -2 -19 -7 -17 -11 7 -2 47 13 57 10 6 9 8
-3 8 -9 0 -16 7 -16 15 0 11 4 12 14 3 7 -6 16 -8 20 -4 3 3 1 6 -6 6 -7 0 -9
5 -6 10 3 6 0 10 -7 11 -7 0 -4 4 7 9 l20 9 -20 0 c-17 1 -17 3 -5 11 13 8 13
10 -2 10 -17 0 -19 23 -3 37 4 4 5 3 1 -4 -3 -6 -3 -14 2 -17 4 -2 8 6 8 19 0
13 -3 22 -6 20 -4 -2 -6 6 -5 18 1 12 -3 29 -9 37 -5 8 -7 12 -2 8 5 -4 15 0
23 8 8 8 18 12 22 10 4 -3 8 1 8 9 0 11 -4 12 -14 4 -7 -6 -13 -8 -13 -4 0 4
8 14 18 21 20 16 25 17 18 5z m754 -21 c6 -11 8 -20 6 -20 -3 0 -10 9 -16 20
-6 11 -8 20 -6 20 3 0 10 -9 16 -20z m-1100 -60 c0 -5 -2 -10 -4 -10 -3 0 -8
5 -11 10 -3 6 -1 10 4 10 6 0 11 -4 11 -10z m1341 -83 c-6 -8 -7 -18 -3 -22 4
-5 1 -5 -6 -1 -10 6 -10 11 -1 22 6 8 14 14 16 14 3 0 0 -6 -6 -13z m-1345
-69 c-2 -13 -6 -28 -8 -35 -1 -6 6 -19 17 -27 16 -13 17 -15 3 -10 -10 3 -18
1 -18 -5 0 -6 -4 -11 -9 -11 -9 0 -7 51 3 68 3 6 2 13 -4 17 -12 7 -4 25 11
25 5 0 7 -10 5 -22z m1340 -12 c0 -14 -3 -23 -7 -20 -6 3 -6 22 0 42 3 10 7
-2 7 -22z m-1346 -95 c0 -6 -4 -12 -8 -15 -5 -3 -9 1 -9 9 0 8 4 15 9 15 4 0
8 -4 8 -9z m784 -19 c2 -4 -4 -9 -15 -9 -11 -1 -17 2 -14 8 7 11 22 12 29 1z
m-469 -22 c-3 -5 -12 -10 -18 -10 -7 0 -6 4 3 10 19 12 23 12 15 0z m-290 -39
c-9 -8 -36 -10 -30 -2 2 4 11 8 20 8 8 0 13 -3 10 -6z m2110 -41 c3 -5 13 -6
22 -3 15 6 16 5 3 -9 -8 -9 -16 -12 -18 -7 -2 5 -8 9 -13 9 -6 0 -7 -6 -3 -12
4 -7 3 -9 -1 -5 -12 10 -15 37 -5 37 5 0 11 -4 15 -10z m-2680 -20 c13 -14 12
-16 -4 -16 -12 0 -17 5 -13 14 4 12 1 12 -16 3 -28 -15 -37 -14 -23 2 15 18
38 17 56 -3z m385 -2 c0 -5 -6 -8 -14 -5 -7 3 -23 -1 -35 -9 -12 -9 -21 -11
-21 -5 0 6 5 11 11 11 5 0 7 4 4 10 -3 5 0 7 8 4 8 -3 18 0 22 5 7 13 25 5 25
-11z m610 2 c0 -5 -7 -7 -15 -4 -8 4 -12 10 -9 15 6 11 24 2 24 -11z m670 -1
c0 -5 -7 -9 -15 -9 -15 0 -20 12 -9 23 8 8 24 -1 24 -14z m1280 0 c0 -5 -7 -9
-15 -9 -15 0 -20 12 -9 23 8 8 24 -1 24 -14z m156 -4 c1 -8 -3 -18 -8 -22 -6
-3 -8 -1 -4 5 3 5 1 12 -6 14 -6 2 -8 10 -4 17 9 14 19 8 22 -14z m-3179 0 c0
-8 -4 -12 -9 -9 -5 3 -6 10 -3 15 9 13 12 11 12 -6z m-36 -32 c-9 -15 -10 -14
-7 7 6 35 7 37 12 23 3 -7 1 -20 -5 -30z m243 19 c3 -5 -1 -9 -9 -9 -8 0 -15
4 -15 9 0 4 4 8 9 8 6 0 12 -4 15 -8z m160 0 c3 -5 -1 -9 -9 -9 -8 0 -15 4
-15 9 0 4 4 8 9 8 6 0 12 -4 15 -8z m3006 -1 c0 -6 -4 -12 -8 -15 -5 -3 -9 1
-9 9 0 8 4 15 9 15 4 0 8 -4 8 -9z m44 -36 c-4 -8 -11 -15 -17 -15 -6 0 -7 3
-4 6 3 4 2 15 -4 26 -9 18 -8 18 10 9 12 -7 18 -17 15 -26z m16 -90 c11 -13
10 -14 -4 -9 -9 3 -16 10 -16 15 0 13 6 11 20 -6z m-3203 -88 c-4 -13 -47 -17
-47 -4 0 5 9 7 21 4 15 -4 19 -2 15 9 -3 9 -2 12 5 9 5 -4 8 -12 6 -18z m3098
-6 c-6 -5 -25 10 -25 20 0 5 6 4 14 -3 8 -7 12 -15 11 -17z"/>
<path d="M3254 788 c1 -34 2 -34 17 -7 6 13 7 19 1 15 -6 -3 -12 0 -15 6 -2 7
-4 1 -3 -14z"/>
<path d="M3254 662 c0 -10 8 -18 16 -18 9 0 17 6 17 13 0 7 -3 11 -5 8 -3 -3
-10 -1 -16 5 -8 6 -12 3 -12 -8z"/>
<path d="M3370 656 c0 -2 8 -10 18 -17 15 -13 16 -12 3 4 -13 16 -21 21 -21
13z"/>
<path d="M3263 497 c0 -8 6 -14 14 -14 9 0 10 4 2 14 -6 7 -12 13 -14 13 -1 0
-2 -6 -2 -13z"/>
<path d="M3248 428 c14 -14 44 -20 36 -7 -3 5 -10 7 -15 4 -5 -4 -9 -1 -9 4 0
6 -5 11 -12 11 -9 0 -9 -3 0 -12z"/>
<path d="M3281 336 c-9 -11 -9 -16 1 -22 22 -14 37 -13 31 3 -5 12 -7 12 -15
1 -7 -9 -8 -7 -5 10 6 26 4 27 -12 8z"/>
<path d="M2544 772 c4 -3 14 -7 22 -8 9 -1 13 0 10 4 -4 3 -14 7 -22 8 -9 1
-13 0 -10 -4z"/>
<path d="M2910 758 c0 -4 4 -8 9 -8 6 0 12 4 15 8 3 5 -1 9 -9 9 -8 0 -15 -4
-15 -9z"/>
<path d="M2870 756 c0 -2 8 -10 18 -17 15 -13 16 -12 3 4 -13 16 -21 21 -21
13z"/>
<path d="M2930 580 c0 -5 5 -10 11 -10 5 0 7 5 4 10 -3 6 -8 10 -11 10 -2 0
-4 -4 -4 -10z"/>
<path d="M2402 530 c7 -11 16 -20 20 -20 5 0 3 9 -4 20 -7 11 -16 20 -20 20
-5 0 -3 -9 4 -20z"/>
<path d="M2920 433 c0 -6 8 -17 18 -24 16 -13 16 -13 2 6 -8 11 -16 22 -17 24
-2 2 -3 0 -3 -6z"/>
<path d="M2635 330 c3 -5 8 -10 11 -10 2 0 4 5 4 10 0 6 -5 10 -11 10 -5 0 -7
-4 -4 -10z"/>
<path d="M2040 770 c-9 -6 -10 -10 -3 -10 6 0 15 5 18 10 8 12 4 12 -15 0z"/>
<path d="M2056 738 c3 -5 10 -6 15 -3 13 9 11 12 -6 12 -8 0 -12 -4 -9 -9z"/>
<path d="M1935 720 c-3 -6 1 -7 9 -4 18 7 21 14 7 14 -6 0 -13 -4 -16 -10z"/>
<path d="M2068 433 c6 -2 9 -10 6 -15 -4 -7 -2 -8 5 -4 13 9 5 26 -12 25 -9 0
-8 -2 1 -6z"/>
<path d="M1936 353 c-6 -14 -5 -15 5 -6 7 7 10 15 7 18 -3 3 -9 -2 -12 -12z"/>
<path d="M2723 4981 c-13 -11 -23 -23 -23 -27 0 -4 5 -3 12 4 8 8 15 9 25 1 9
-8 13 -8 13 -1 0 6 8 9 18 6 13 -5 14 -4 3 4 -8 6 -21 7 -30 4 -14 -5 -14 -3
-2 11 17 22 12 21 -16 -2z"/>
<path d="M2766 4989 c4 -8 60 -6 68 1 2 3 -13 5 -34 5 -21 0 -37 -3 -34 -6z"/>
<path d="M2870 4989 c0 -5 -6 -7 -12 -3 -7 4 -9 3 -5 -1 13 -15 36 -14 30 1
-6 17 -13 18 -13 3z"/>
<path d="M2521 4956 c-21 -12 -22 -14 -5 -20 10 -4 15 -4 11 0 -4 4 1 13 11
20 22 17 14 17 -17 0z"/>
<path d="M2820 4962 c0 -5 7 -9 15 -9 8 0 15 4 15 9 0 4 -7 8 -15 8 -8 0 -15
-4 -15 -8z"/>
<path d="M2935 4940 c3 -5 8 -10 11 -10 2 0 4 5 4 10 0 6 -5 10 -11 10 -5 0
-7 -4 -4 -10z"/>
<path d="M3026 4893 c-6 -14 -5 -15 5 -6 7 7 10 15 7 18 -3 3 -9 -2 -12 -12z"/>
<path d="M2321 4836 c-9 -11 -9 -16 1 -22 7 -4 10 -4 6 1 -4 4 -3 14 3 22 6 7
9 13 6 13 -2 0 -10 -6 -16 -14z"/>
<path d="M2266 4766 c6 -15 4 -17 -6 -11 -9 6 -11 4 -5 -4 5 -9 10 -10 18 -2
8 8 7 14 -2 24 -10 10 -11 8 -5 -7z"/>
<path d="M3505 4761 c-3 -5 -2 -12 3 -15 5 -3 9 1 9 9 0 17 -3 19 -12 6z"/>
<path d="M3475 4740 c-3 -5 -1 -10 4 -10 6 0 11 5 11 10 0 6 -2 10 -4 10 -3 0
-8 -4 -11 -10z"/>
<path d="M3241 4693 c7 -10 14 -19 15 -21 1 -2 4 4 8 13 3 9 2 13 -4 10 -6 -3
-10 -1 -10 4 0 6 -5 11 -11 11 -8 0 -7 -6 2 -17z"/>
<path d="M3296 4673 c-6 -14 -5 -15 5 -6 7 7 10 15 7 18 -3 3 -9 -2 -12 -12z"/>
<path d="M3271 4665 c0 -5 4 -17 9 -25 7 -12 12 -12 22 -2 9 9 9 12 -4 12 -9
0 -19 6 -21 13 -3 6 -6 8 -6 2z"/>
<path d="M1759 4648 c7 -9 10 -22 6 -28 -4 -7 6 -5 23 4 16 8 32 12 36 9 3 -4
6 -1 6 5 0 14 -10 15 -30 2 -10 -6 -21 -4 -35 8 -18 16 -19 16 -6 0z"/>
<path d="M1840 4641 c0 -6 4 -13 10 -16 6 -3 7 1 4 9 -7 18 -14 21 -14 7z"/>
<path d="M1913 4631 c8 -9 12 -10 15 -2 2 6 8 9 13 5 5 -3 9 -1 9 4 0 6 -11 9
-24 8 -19 -1 -22 -4 -13 -15z"/>
<path d="M1965 4641 c-6 -11 13 -26 22 -17 4 3 0 6 -8 6 -11 0 -11 2 1 10 9 6
10 10 3 10 -6 0 -14 -4 -18 -9z"/>
<path d="M2061 4621 c-8 -5 -9 -11 -3 -15 5 -3 12 1 16 9 6 17 6 18 -13 6z"/>
<path d="M2113 4605 c0 -8 4 -12 9 -9 5 3 6 10 3 15 -9 13 -12 11 -12 -6z"/>
<path d="M1506 4535 c4 -8 11 -15 16 -15 6 0 5 6 -2 15 -7 8 -14 15 -16 15 -2
0 -1 -7 2 -15z"/>
<path d="M1415 4480 c-3 -5 -1 -10 4 -10 6 0 11 5 11 10 0 6 -2 10 -4 10 -3 0
-8 -4 -11 -10z"/>
<path d="M1384 4442 c3 -5 0 -13 -6 -15 -9 -4 -10 -6 -1 -6 17 -1 25 16 12 25
-7 4 -9 3 -5 -4z"/>
<path d="M1353 4395 c0 -11 4 -12 14 -4 7 6 13 13 13 15 0 2 -6 4 -13 4 -8 0
-14 -7 -14 -15z"/>
<path d="M4300 4046 c0 -2 7 -7 16 -10 8 -3 12 -2 9 4 -6 10 -25 14 -25 6z"/>
<path d="M4713 3753 c4 -3 -1 -12 -11 -20 -15 -13 -15 -13 4 -4 12 6 25 7 30
3 5 -4 2 1 -5 11 -7 9 -16 17 -19 17 -3 0 -2 -3 1 -7z"/>
<path d="M545 3720 c-3 -6 1 -7 9 -4 18 7 21 14 7 14 -6 0 -13 -4 -16 -10z"/>
<path d="M476 3653 c-6 -14 -5 -15 5 -6 7 7 10 15 7 18 -3 3 -9 -2 -12 -12z"/>
<path d="M387 3515 c3 -8 9 -12 14 -9 12 7 11 11 -5 17 -10 4 -13 1 -9 -8z"/>
<path d="M362 3484 c-7 -14 -17 -22 -22 -19 -6 3 -11 1 -11 -4 -1 -6 -2 -17
-3 -23 -1 -7 -8 -12 -16 -10 -11 2 -11 0 -1 -11 9 -12 8 -16 -5 -21 -9 -4 -14
-9 -11 -13 9 -8 38 17 32 27 -3 5 -1 11 5 15 6 4 8 11 5 16 -4 5 -2 9 4 9 12
0 46 48 39 55 -3 3 -10 -6 -16 -21z"/>
<path d="M4775 3460 c-3 -5 -1 -10 4 -10 6 0 11 5 11 10 0 6 -2 10 -4 10 -3 0
-8 -4 -11 -10z"/>
<path d="M4775 3401 c-3 -5 -2 -12 3 -15 5 -3 9 1 9 9 0 17 -3 19 -12 6z"/>
<path d="M4740 3214 c0 -1 6 -7 14 -13 10 -8 16 -8 24 1 8 10 4 13 -14 13 -13
0 -24 -1 -24 -1z"/>
<path d="M4796 3147 c3 -10 9 -15 12 -12 3 3 0 11 -7 18 -10 9 -11 8 -5 -6z"/>
<path d="M4940 2766 c0 -2 8 -10 18 -17 15 -13 16 -12 3 4 -13 16 -21 21 -21
13z"/>
<path d="M4955 2560 c3 -5 8 -10 11 -10 2 0 4 5 4 10 0 6 -5 10 -11 10 -5 0
-7 -4 -4 -10z"/>
<path d="M4956 2513 c-6 -14 -5 -15 5 -6 7 7 10 15 7 18 -3 3 -9 -2 -12 -12z"/>
<path d="M90 2239 c0 -5 5 -7 10 -4 6 3 10 8 10 11 0 2 -4 4 -10 4 -5 0 -10
-5 -10 -11z"/>
<path d="M175 2129 c-4 -6 -4 -13 -1 -16 3 -4 6 -1 6 6 0 7 5 9 12 5 7 -4 8
-3 4 4 -9 15 -13 15 -21 1z"/>
<path d="M4735 2041 c-6 -11 13 -26 22 -17 4 3 1 6 -6 6 -7 0 -9 5 -6 10 3 6
4 10 1 10 -3 0 -7 -4 -11 -9z"/>
<path d="M340 1988 c0 -2 9 -11 20 -21 11 -9 20 -13 20 -7 0 5 -9 14 -20 20
-11 6 -20 9 -20 8z"/>
<path d="M475 1929 c-4 -6 -5 -12 -2 -15 2 -3 7 2 10 11 7 17 1 20 -8 4z"/>
<path d="M4675 1919 c-3 -4 2 -6 10 -5 21 3 28 13 10 13 -9 0 -18 -4 -20 -8z"/>
<path d="M795 1910 c-4 -6 -2 -17 4 -24 7 -8 7 -16 0 -23 -6 -6 -5 -10 4 -10
10 0 13 10 12 29 -3 34 -10 44 -20 28z"/>
<path d="M696 1894 c-8 -22 -4 -25 11 -9 7 8 9 16 4 19 -5 3 -12 -1 -15 -10z"/>
<path d="M4666 1891 c-3 -5 0 -13 7 -19 10 -8 13 -6 13 9 0 20 -11 25 -20 10z"/>
<path d="M4675 1761 c-3 -5 -2 -12 3 -15 5 -3 9 1 9 9 0 17 -3 19 -12 6z"/>
<path d="M836 1723 c-6 -14 -5 -15 5 -6 7 7 10 15 7 18 -3 3 -9 -2 -12 -12z"/>
<path d="M4679 1708 c-7 -23 -4 -35 7 -35 8 0 14 4 14 9 0 4 -5 8 -11 8 -5 0
-7 5 -4 10 3 6 4 10 1 10 -3 0 -6 -1 -7 -2z"/>
<path d="M874 1642 c0 -10 6 -19 13 -19 8 0 9 6 2 19 -5 10 -11 18 -12 18 -2
0 -3 -8 -3 -18z"/>
<path d="M4593 1445 c0 -8 4 -12 9 -9 5 3 6 10 3 15 -9 13 -12 11 -12 -6z"/>
<path d="M1279 1213 c-12 -16 -12 -17 2 -6 16 13 29 8 29 -9 0 -5 -4 -7 -8 -4
-5 3 -9 -1 -9 -9 0 -20 13 -19 21 2 4 9 1 23 -7 30 -12 12 -16 11 -28 -4z"/>
<path d="M4227 1163 c5 -12 7 -12 14 -1 8 13 13 4 9 -17 -1 -5 4 -4 11 2 15
15 10 22 -19 28 -15 3 -19 0 -15 -12z"/>
<path d="M1430 960 c0 -5 5 -10 10 -10 6 0 10 5 10 10 0 6 -4 10 -10 10 -5 0
-10 -4 -10 -10z"/>
<path d="M3996 902 c-3 -4 4 -9 15 -9 23 -2 25 3 4 10 -8 4 -16 3 -19 -1z"/>
<path d="M3966 892 c-3 -6 -1 -14 5 -17 14 -9 20 -2 10 14 -6 8 -11 9 -15 3z"/>
<path d="M3887 844 c-8 -8 3 -34 15 -34 7 0 6 5 -1 13 -6 8 -8 17 -4 20 3 4 4
7 1 7 -2 0 -7 -3 -11 -6z"/>
<path d="M3735 400 c-3 -5 -1 -10 4 -10 6 0 11 5 11 10 0 6 -2 10 -4 10 -3 0
-8 -4 -11 -10z"/>
<path d="M3915 330 c3 -5 8 -10 11 -10 2 0 4 5 4 10 0 6 -5 10 -11 10 -5 0 -7
-4 -4 -10z"/>
<path d="M4200 322 c11 -22 31 -22 29 1 0 8 -2 8 -6 -1 -4 -10 -9 -9 -20 5
-13 17 -13 16 -3 -5z"/>
<path d="M1123 323 c-7 -2 -13 -9 -13 -14 0 -6 5 -7 10 -4 6 3 10 1 10 -6 0
-8 3 -9 13 0 8 6 18 7 23 3 4 -4 2 1 -5 11 -14 18 -18 19 -38 10z"/>
<path d="M1175 320 c3 -5 8 -10 11 -10 2 0 4 5 4 10 0 6 -5 10 -11 10 -5 0 -7
-4 -4 -10z"/>
<path d="M1335 320 c3 -5 8 -10 11 -10 2 0 4 5 4 10 0 6 -5 10 -11 10 -5 0 -7
-4 -4 -10z"/>
<path d="M3843 315 c-9 -10 -6 -12 17 -11 15 0 26 4 23 9 -2 4 -8 5 -13 2 -4
-3 -10 -1 -12 4 -1 5 -8 3 -15 -4z"/>
<path d="M4084 320 c2 -16 20 -14 24 2 3 10 2 10 -6 -1 -7 -9 -11 -10 -15 -2
-4 7 -5 8 -3 1z"/>
<path d="M915 281 c-3 -5 -2 -12 3 -15 5 -3 9 1 9 9 0 17 -3 19 -12 6z"/>
<path d="M1304 59 c-3 -6 -2 -15 3 -20 5 -5 9 -1 9 11 0 23 -2 24 -12 9z"/>
<path d="M1624 59 c-3 -6 -2 -15 3 -20 5 -5 9 -1 9 11 0 23 -2 24 -12 9z"/>
<path d="M1944 59 c-3 -6 -2 -15 3 -20 5 -5 9 -1 9 11 0 23 -2 24 -12 9z"/>
<path d="M2264 59 c-3 -6 -2 -15 3 -20 5 -5 9 -1 9 11 0 23 -2 24 -12 9z"/>
<path d="M2584 59 c-3 -6 -2 -15 3 -20 5 -5 9 -1 9 11 0 23 -2 24 -12 9z"/>
<path d="M2904 59 c-3 -6 -2 -15 3 -20 5 -5 9 -1 9 11 0 23 -2 24 -12 9z"/>
<path d="M3224 59 c-3 -6 -2 -15 3 -20 5 -5 9 -1 9 11 0 23 -2 24 -12 9z"/>
<path d="M3544 59 c-3 -6 -2 -15 3 -20 5 -5 9 -1 9 11 0 23 -2 24 -12 9z"/>
<path d="M3864 59 c-3 -6 -2 -15 3 -20 5 -5 9 -1 9 11 0 23 -2 24 -12 9z"/>
<path d="M4184 59 c-3 -6 -2 -15 3 -20 5 -5 9 -1 9 11 0 23 -2 24 -12 9z"/>
<path d="M1055 51 c-3 -5 -2 -12 3 -15 5 -3 9 1 9 9 0 17 -3 19 -12 6z"/>
<path d="M1086 50 c5 -8 9 -18 9 -22 0 -3 3 -9 7 -13 3 -4 5 0 4 9 -1 9 -8 22
-16 29 -10 10 -11 9 -4 -3z"/>
<path d="M1375 51 c-3 -5 -2 -12 3 -15 5 -3 9 1 9 9 0 17 -3 19 -12 6z"/>
<path d="M1406 50 c5 -8 9 -18 9 -22 0 -3 3 -9 7 -13 3 -4 5 0 4 9 -1 9 -8 22
-16 29 -10 10 -11 9 -4 -3z"/>
<path d="M1695 51 c-3 -5 -2 -12 3 -15 5 -3 9 1 9 9 0 17 -3 19 -12 6z"/>
<path d="M1726 50 c5 -8 9 -18 9 -22 0 -3 3 -9 7 -13 3 -4 5 0 4 9 -1 9 -8 22
-16 29 -10 10 -11 9 -4 -3z"/>
<path d="M2015 51 c-3 -5 -2 -12 3 -15 5 -3 9 1 9 9 0 17 -3 19 -12 6z"/>
<path d="M2046 50 c5 -8 9 -18 9 -22 0 -3 3 -9 7 -13 3 -4 5 0 4 9 -1 9 -8 22
-16 29 -10 10 -11 9 -4 -3z"/>
<path d="M2335 51 c-3 -5 -2 -12 3 -15 5 -3 9 1 9 9 0 17 -3 19 -12 6z"/>
<path d="M2366 50 c5 -8 9 -18 9 -22 0 -3 3 -9 7 -13 3 -4 5 0 4 9 -1 9 -8 22
-16 29 -10 10 -11 9 -4 -3z"/>
<path d="M2655 51 c-3 -5 -2 -12 3 -15 5 -3 9 1 9 9 0 17 -3 19 -12 6z"/>
<path d="M2686 50 c5 -8 9 -18 9 -22 0 -3 3 -9 7 -13 3 -4 5 0 4 9 -1 9 -8 22
-16 29 -10 10 -11 9 -4 -3z"/>
<path d="M2975 51 c-3 -5 -2 -12 3 -15 5 -3 9 1 9 9 0 17 -3 19 -12 6z"/>
<path d="M3006 50 c5 -8 9 -18 9 -22 0 -3 3 -9 7 -13 3 -4 5 0 4 9 -1 9 -8 22
-16 29 -10 10 -11 9 -4 -3z"/>
<path d="M3295 51 c-3 -5 -2 -12 3 -15 5 -3 9 1 9 9 0 17 -3 19 -12 6z"/>
<path d="M3326 50 c5 -8 9 -18 9 -22 0 -3 3 -9 7 -13 3 -4 5 0 4 9 -1 9 -8 22
-16 29 -10 10 -11 9 -4 -3z"/>
<path d="M3615 51 c-3 -5 -2 -12 3 -15 5 -3 9 1 9 9 0 17 -3 19 -12 6z"/>
<path d="M3646 50 c5 -8 9 -18 9 -22 0 -3 3 -9 7 -13 3 -4 5 0 4 9 -1 9 -8 22
-16 29 -10 10 -11 9 -4 -3z"/>
<path d="M3935 51 c-3 -5 -2 -12 3 -15 5 -3 9 1 9 9 0 17 -3 19 -12 6z"/>
<path d="M3966 50 c5 -8 9 -18 9 -22 0 -3 3 -9 7 -13 3 -4 5 0 4 9 -1 9 -8 22
-16 29 -10 10 -11 9 -4 -3z"/>
<path d="M4255 51 c-3 -5 -2 -12 3 -15 5 -3 9 1 9 9 0 17 -3 19 -12 6z"/>
<path d="M4286 50 c5 -8 9 -18 9 -22 0 -3 3 -9 7 -13 3 -4 5 0 4 9 -1 9 -8 22
-16 29 -10 10 -11 9 -4 -3z"/>
<path d="M1535 19 c-3 -4 2 -6 10 -5 21 3 28 13 10 13 -9 0 -18 -4 -20 -8z"/>
<path d="M1855 19 c-3 -4 2 -6 10 -5 21 3 28 13 10 13 -9 0 -18 -4 -20 -8z"/>
<path d="M2175 19 c-3 -4 2 -6 10 -5 21 3 28 13 10 13 -9 0 -18 -4 -20 -8z"/>
<path d="M2495 19 c-3 -4 2 -6 10 -5 21 3 28 13 10 13 -9 0 -18 -4 -20 -8z"/>
<path d="M2815 19 c-3 -4 2 -6 10 -5 21 3 28 13 10 13 -9 0 -18 -4 -20 -8z"/>
<path d="M3135 19 c-3 -4 2 -6 10 -5 21 3 28 13 10 13 -9 0 -18 -4 -20 -8z"/>
<path d="M3455 19 c-3 -4 2 -6 10 -5 21 3 28 13 10 13 -9 0 -18 -4 -20 -8z"/>
<path d="M3775 19 c-3 -4 2 -6 10 -5 21 3 28 13 10 13 -9 0 -18 -4 -20 -8z"/>
<path d="M4095 19 c-3 -4 2 -6 10 -5 21 3 28 13 10 13 -9 0 -18 -4 -20 -8z"/>
</g>
</svg>
