<?xml version="1.0" standalone="no"?>
<!DOCTYPE svg PUBLIC "-//W3C//DTD SVG 20010904//EN"
 "http://www.w3.org/TR/2001/REC-SVG-20010904/DTD/svg10.dtd">
<svg version="1.0" xmlns="http://www.w3.org/2000/svg"
 width="291.000000pt" height="291.000000pt" viewBox="0 0 291.000000 291.000000"
 preserveAspectRatio="xMidYMid meet">
<metadata>
Created by potrace 1.11, written by Peter Selinger 2001-2013
</metadata>
<g transform="translate(0.000000,291.000000) scale(0.100000,-0.100000)"
fill="#000000" stroke="none">
<path d="M1419 2709 c-20 -5 -87 -35 -150 -67 l-114 -59 -130 -7 c-71 -3 -147
-11 -168 -17 -50 -14 -94 -61 -170 -184 -61 -98 -64 -101 -162 -162 -180 -112
-189 -126 -204 -349 l-8 -130 -62 -117 c-55 -106 -61 -123 -61 -177 0 -54 6
-71 61 -177 l62 -117 12 -155 c17 -213 12 -205 231 -344 66 -41 77 -54 135
-148 74 -121 115 -165 166 -178 21 -6 99 -14 173 -19 l135 -9 120 -62 c165
-86 185 -86 349 -1 l120 63 136 9 c74 5 152 14 173 19 50 13 93 60 170 184 61
98 64 101 162 162 179 111 189 128 204 349 l8 130 62 117 c54 105 61 124 61
176 0 47 -7 72 -35 127 -19 38 -35 72 -35 75 0 3 16 24 37 45 89 95 110 228
52 342 -33 67 -90 121 -154 148 -22 9 -85 26 -142 39 -56 13 -116 33 -133 45
-16 12 -58 67 -92 122 -73 120 -114 164 -165 177 -21 6 -99 14 -175 19 l-136
9 -106 57 c-114 61 -170 77 -227 65z m691 -274 c21 -26 24 -98 5 -134 -9 -18
-15 -34 -13 -36 2 -1 21 -11 43 -22 49 -24 102 -38 222 -58 183 -31 260 -65
319 -142 112 -147 26 -356 -169 -407 -87 -23 -165 0 -276 79 -67 48 -96 58
-116 39 -19 -19 -19 -28 -1 -62 23 -45 61 -73 128 -96 74 -26 88 -53 42 -83
-42 -27 -221 -24 -329 6 -192 53 -371 172 -451 301 l-36 59 -36 -20 c-23 -12
-56 -19 -88 -19 -43 0 -56 5 -92 36 -23 19 -42 44 -42 55 0 28 67 97 119 123
25 13 73 31 106 41 136 38 248 150 270 268 7 37 8 37 56 37 27 0 69 -5 93 -12
39 -10 48 -10 63 4 29 26 105 58 139 58 17 0 37 -7 44 -15z"/>
<path d="M1715 2061 c-38 -16 -75 -77 -60 -100 3 -6 26 1 54 15 27 13 53 24
59 24 21 0 34 28 22 49 -11 22 -40 26 -75 12z"/>
</g>
</svg>
